Newsreader-TextExtraLight.ufo
<glyph name="exclam" format="2">
  <advance width="477.0"/>
  <unicode hex="0021"/>
  <guideline x="179.0" y="396" angle="180.0" identifier="f2FdG0FHDV"/>
  <outline>
    <contour>
      <point x="284.0" y="1318.0" type="line" smooth="yes"/>
      <point x="284.0" y="1341.0"/>
      <point x="270.0" y="1350.0"/>
      <point x="239.0" y="1350.0" type="curve" smooth="yes"/>
      <point x="208.0" y="1350.0"/>
      <point x="193.0" y="1341.0"/>
      <point x="193.0" y="1318.0" type="curve" smooth="yes"/>
      <point x="193.0" y="1298.0" type="line" smooth="yes"/>
      <point x="193.0" y="1267.0"/>
      <point x="215.0" y="717.0"/>
      <point x="220.0" y="396.0" type="curve"/>
      <point x="254.0" y="396.0" type="line"/>
      <point x="259.0" y="717.0"/>
      <point x="284.0" y="1270.0"/>
      <point x="284.0" y="1298.0" type="curve" smooth="yes"/>
    </contour>
    <contour>
      <point x="239.0" y="145.0" type="curve" smooth="yes"/>
      <point x="194.0" y="145.0"/>
      <point x="160.0" y="109.0"/>
      <point x="160.0" y="65.0" type="curve" smooth="yes"/>
      <point x="160.0" y="21.0"/>
      <point x="194.0" y="-15.0"/>
      <point x="239.0" y="-15.0" type="curve" smooth="yes"/>
      <point x="284.0" y="-15.0"/>
      <point x="318.0" y="21.0"/>
      <point x="318.0" y="65.0" type="curve" smooth="yes"/>
      <point x="318.0" y="109.0"/>
      <point x="284.0" y="145.0"/>
    </contour>
  </outline>
</glyph>
<glyph name="ampersand" format="2">
  <advance width="1370"/>
  <unicode hex="0026"/>
  <outline>
    <contour>
      <point x="522" y="743" type="line"/>
      <point x="753" y="871"/>
      <point x="840" y="982"/>
      <point x="840" y="1114" type="curve" smooth="yes"/>
      <point x="840" y="1245"/>
      <point x="747" y="1360"/>
      <point x="563" y="1360" type="curve" smooth="yes"/>
      <point x="379" y="1360"/>
      <point x="265" y="1245"/>
      <point x="265" y="1088" type="curve" smooth="yes"/>
      <point x="265" y="996"/>
      <point x="296" y="910"/>
      <point x="450" y="738" type="curve" smooth="yes"/>
      <point x="1112" y="0" type="line"/>
      <point x="1354" y="0" type="line"/>
      <point x="1354" y="22" type="line"/>
      <point x="1162" y="54" type="line"/>
      <point x="492" y="798" type="line" smooth="yes"/>
      <point x="364" y="940"/>
      <point x="328" y="1015"/>
      <point x="328" y="1116" type="curve" smooth="yes"/>
      <point x="328" y="1242"/>
      <point x="426" y="1327"/>
      <point x="559" y="1327" type="curve" smooth="yes"/>
      <point x="698" y="1327"/>
      <point x="776" y="1240"/>
      <point x="776" y="1111" type="curve" smooth="yes"/>
      <point x="776" y="981"/>
      <point x="699" y="881"/>
      <point x="504" y="771" type="curve"/>
      <point x="468" y="753" type="line"/>
      <point x="231" y="634"/>
      <point x="125" y="507"/>
      <point x="125" y="315" type="curve" smooth="yes"/>
      <point x="125" y="125"/>
      <point x="263" y="-20"/>
      <point x="502" y="-20" type="curve" smooth="yes"/>
      <point x="689" y="-20.0"/>
      <point x="833" y="55"/>
      <point x="944" y="213" type="curve"/>
      <point x="961" y="238" type="line"/>
      <point x="1040" y="357"/>
      <point x="1109" y="526"/>
      <point x="1165" y="763" type="curve"/>
      <point x="1323" y="789" type="line"/>
      <point x="1323" y="813" type="line"/>
      <point x="937" y="813" type="line"/>
      <point x="937" y="789" type="line"/>
      <point x="1099" y="763" type="line"/>
      <point x="1068" y="535"/>
      <point x="1011" y="377"/>
      <point x="939" y="268" type="curve"/>
      <point x="921" y="243" type="line"/>
      <point x="824.0" y="109.0"/>
      <point x="690.0" y="45.0"/>
      <point x="534" y="45" type="curve" smooth="yes"/>
      <point x="322" y="45"/>
      <point x="199" y="152"/>
      <point x="199" y="335" type="curve" smooth="yes"/>
      <point x="199" y="495"/>
      <point x="264" y="607"/>
      <point x="475" y="722" type="curve"/>
    </contour>
  </outline>
</glyph>
<glyph name="quotesingle" format="2">
  <advance width="303"/>
  <unicode hex="0027"/>
  <outline>
    <contour>
      <point x="137.0" y="929.0" type="line"/>
      <point x="164.0" y="929.0" type="line"/>
      <point x="199.0" y="1300.0" type="line"/>
      <point x="199.0" y="1340.0" type="line"/>
      <point x="105.0" y="1340.0" type="line"/>
      <point x="105.0" y="1300.0" type="line"/>
    </contour>
  </outline>
</glyph>
<glyph name="plus" format="2">
  <advance width="1000.0"/>
  <unicode hex="002B"/>
  <outline>
    <contour>
      <point x="478.0" y="793.0" type="line"/>
      <point x="478.0" y="79.0" type="line"/>
      <point x="522.0" y="79.0" type="line"/>
      <point x="522.0" y="793.0" type="line"/>
    </contour>
    <contour>
      <point x="857.0" y="454.0" type="line"/>
      <point x="143.0" y="454.0" type="line"/>
      <point x="143.0" y="410.0" type="line"/>
      <point x="857.0" y="410.0" type="line"/>
    </contour>
  </outline>
</glyph>
<glyph name="period" format="2">
  <advance width="376.0"/>
  <unicode hex="002E"/>
  <outline>
    <contour>
      <point x="188.0" y="145.0" type="curve" smooth="yes"/>
      <point x="143.0" y="145.0"/>
      <point x="109.0" y="109.0"/>
      <point x="109.0" y="65.0" type="curve" smooth="yes"/>
      <point x="109.0" y="21.0"/>
      <point x="143.0" y="-15.0"/>
      <point x="188.0" y="-15.0" type="curve" smooth="yes"/>
      <point x="233.0" y="-15.0"/>
      <point x="267.0" y="21.0"/>
      <point x="267.0" y="65.0" type="curve" smooth="yes"/>
      <point x="267.0" y="109.0"/>
      <point x="233.0" y="145.0"/>
    </contour>
  </outline>
</glyph>
<glyph name="slash" format="2">
  <advance width="746"/>
  <unicode hex="002F"/>
  <outline>
    <contour>
      <point x="61.0" y="0.0" type="line"/>
      <point x="124.0" y="0.0" type="line"/>
      <point x="684.0" y="1340.0" type="line"/>
      <point x="621.0" y="1340.0" type="line"/>
    </contour>
  </outline>
</glyph>
<glyph name="one" format="2">
  <advance width="1100.0"/>
  <unicode hex="0031"/>
  <outline>
    <contour>
      <point x="591.0" y="51.0" type="line"/>
      <point x="309.0" y="22.0" type="line"/>
      <point x="309.0" y="0.0" type="line"/>
      <point x="927.0" y="0.0" type="line"/>
      <point x="927.0" y="22.0" type="line"/>
      <point x="665.0" y="51.0" type="line"/>
      <point x="665.0" y="1360.0" type="line"/>
      <point x="649.0" y="1360.0" type="line"/>
      <point x="219.0" y="1145.0" type="line"/>
      <point x="227.0" y="1123.0" type="line"/>
      <point x="616.0" y="1259.0" type="line"/>
      <point x="591.0" y="1279.0" type="line"/>
    </contour>
  </outline>
</glyph>
<glyph name="semicolon" format="2">
  <advance width="465.0"/>
  <unicode hex="003B"/>
  <outline>
    <contour>
      <point x="109.0" y="-265.0" type="curve"/>
      <point x="130.0" y="-291.0" type="line"/>
      <point x="255.0" y="-198.0"/>
      <point x="324.0" y="-96.0"/>
      <point x="324.0" y="20.0" type="curve" smooth="yes"/>
      <point x="324.0" y="100.0"/>
      <point x="283.0" y="145.0"/>
      <point x="234.0" y="145.0" type="curve" smooth="yes"/>
      <point x="191.0" y="145.0"/>
      <point x="163.0" y="122.0"/>
      <point x="164.0" y="80.0" type="curve" smooth="yes"/>
      <point x="165.0" y="45.0"/>
      <point x="255.0" y="41.0"/>
      <point x="255.0" y="-51.0" type="curve" smooth="yes"/>
      <point x="255.0" y="-117.0"/>
      <point x="216.0" y="-185.0"/>
    </contour>
    <contour>
      <point x="238.0" y="863.0" type="curve" smooth="yes"/>
      <point x="193.0" y="863.0"/>
      <point x="159.0" y="827.0"/>
      <point x="159.0" y="783.0" type="curve" smooth="yes"/>
      <point x="159.0" y="739.0"/>
      <point x="193.0" y="703.0"/>
      <point x="238.0" y="703.0" type="curve" smooth="yes"/>
      <point x="283.0" y="703.0"/>
      <point x="317.0" y="739.0"/>
      <point x="317.0" y="783.0" type="curve" smooth="yes"/>
      <point x="317.0" y="827.0"/>
      <point x="283.0" y="863.0"/>
    </contour>
  </outline>
</glyph>
<glyph name="less" format="2">
  <advance width="1000.0"/>
  <unicode hex="003C"/>
  <guideline x="138.0" y="422" angle="174.1132516972988" identifier="kprTFTNFtj"/>
  <outline>
    <contour>
      <point x="94.0" y="426.0" type="line"/>
      <point x="945.0" y="841.0" type="line"/>
      <point x="945.0" y="892.0" type="line"/>
      <point x="45.0" y="453.0" type="line"/>
      <point x="45.0" y="417.0" type="line"/>
      <point x="945.0" y="-20.0" type="line"/>
      <point x="945.0" y="33.0" type="line"/>
      <point x="94.0" y="445.0" type="line"/>
    </contour>
  </outline>
</glyph>
<glyph name="greater" format="2">
  <advance width="1000"/>
  <unicode hex="003E"/>
  <outline>
    <contour>
      <point x="906.0" y="427.0" type="line"/>
      <point x="906.0" y="446.0" type="line"/>
      <point x="55.0" y="31.0" type="line"/>
      <point x="55.0" y="-20.0" type="line"/>
      <point x="955.0" y="419.0" type="line"/>
      <point x="955.0" y="455.0" type="line"/>
      <point x="55.0" y="892.0" type="line"/>
      <point x="55.0" y="839.0" type="line"/>
    </contour>
  </outline>
</glyph>
<glyph name="B" format="2">
  <advance width="1139.0"/>
  <unicode hex="0042"/>
  <anchor x="579.0" y="1340" name="UCtop"/>
  <anchor x="609.0" y="0" name="bottom"/>
  <outline>
    <contour>
      <point x="294.0" y="1294.0" type="line"/>
      <point x="489.0" y="1294.0" type="line" smooth="yes"/>
      <point x="783.0" y="1294.0"/>
      <point x="883.0" y="1188.0"/>
      <point x="883.0" y="1014.0" type="curve" smooth="yes"/>
      <point x="883.0" y="842.0"/>
      <point x="783.0" y="736.0"/>
      <point x="489.0" y="736.0" type="curve" smooth="yes"/>
      <point x="294.0" y="736.0" type="line"/>
      <point x="291.0" y="690.0" type="line"/>
      <point x="520.0" y="690.0" type="line" smooth="yes"/>
      <point x="854.0" y="690.0"/>
      <point x="968.0" y="567.0"/>
      <point x="968.0" y="367.0" type="curve" smooth="yes"/>
      <point x="968.0" y="168.0"/>
      <point x="854.0" y="46.0"/>
      <point x="520.0" y="46.0" type="curve" smooth="yes"/>
      <point x="291.0" y="46.0" type="line"/>
      <point x="291.0" y="0.0" type="line"/>
      <point x="565.0" y="0.0" type="line" smooth="yes"/>
      <point x="916.0" y="0.0"/>
      <point x="1046.0" y="160.0"/>
      <point x="1046.0" y="366.0" type="curve" smooth="yes"/>
      <point x="1046.0" y="560.0"/>
      <point x="937.0" y="691.0"/>
      <point x="670.0" y="726.0" type="curve"/>
      <point x="671.0" y="716.0" type="line"/>
      <point x="884.0" y="754.0"/>
      <point x="958.0" y="881.0"/>
      <point x="958.0" y="1024.0" type="curve" smooth="yes"/>
      <point x="958.0" y="1202.0"/>
      <point x="843.0" y="1340.0"/>
      <point x="533.0" y="1340.0" type="curve" smooth="yes"/>
      <point x="291.0" y="1340.0" type="line"/>
    </contour>
    <contour>
      <point x="71.0" y="0.0" type="line"/>
      <point x="319.0" y="0.0" type="line"/>
      <point x="319.0" y="1340.0" type="line"/>
      <point x="71.0" y="1340.0" type="line"/>
      <point x="71.0" y="1318.0" type="line"/>
      <point x="243.0" y="1288.0" type="line"/>
      <point x="243.0" y="52.0" type="line"/>
      <point x="71.0" y="22.0" type="line"/>
    </contour>
  </outline>
</glyph>
<glyph name="C" format="2">
  <advance width="1334.0"/>
  <unicode hex="0043"/>
  <anchor x="753.0" y="1340" name="UCtop"/>
  <anchor x="773.0" y="0" name="bottom"/>
  <anchor x="1164.0" y="0" name="right"/>
  <outline>
    <contour>
      <point x="821.0" y="19.0" type="curve" smooth="yes"/>
      <point x="472.0" y="19.0"/>
      <point x="182.0" y="258.0625"/>
      <point x="182.0" y="694.0" type="curve" smooth="yes"/>
      <point x="182.0" y="1097.6038961038962"/>
      <point x="422.0" y="1314.0"/>
      <point x="771.0" y="1314.0" type="curve" smooth="yes"/>
      <point x="905.0" y="1314.0"/>
      <point x="1014.0" y="1280.0"/>
      <point x="1164.0" y="1194.0" type="curve"/>
      <point x="1079.0" y="1278.0" type="line"/>
      <point x="1218.0" y="954.0" type="line"/>
      <point x="1243.0" y="959.0" type="line"/>
      <point x="1170.0" y="1386.0" type="line"/>
      <point x="1162.0" y="1386.0" type="line"/>
      <point x="1104.0" y="1309.0" type="line"/>
      <point x="1161.0" y="1297.0" type="line"/>
      <point x="1038.0" y="1339.0"/>
      <point x="937.0" y="1360.0"/>
      <point x="826.0" y="1360.0" type="curve" smooth="yes"/>
      <point x="381.0" y="1360.0"/>
      <point x="100.0" y="1090.4373177842565"/>
      <point x="100.0" y="670.0" type="curve" smooth="yes"/>
      <point x="100.0" y="226.78832116788323"/>
      <point x="415.0" y="-20.0"/>
      <point x="824.0" y="-20.0" type="curve" smooth="yes"/>
      <point x="963.0" y="-20.0"/>
      <point x="1109.0" y="9.0"/>
      <point x="1207.0" y="52.0" type="curve"/>
      <point x="1251.0" y="324.0" type="line"/>
      <point x="1225.0" y="324.0" type="line"/>
      <point x="1099.0" y="39.0" type="line"/>
      <point x="1163.0" y="105.0" type="line"/>
      <point x="1067.0" y="48.0"/>
      <point x="938.0" y="19.0"/>
    </contour>
  </outline>
</glyph>
<glyph name="F" format="2">
  <advance width="1061.0"/>
  <unicode hex="0046"/>
  <anchor x="570.0" y="1340" name="UCtop"/>
  <anchor x="281.0" y="0" name="bottom"/>
  <outline>
    <contour>
      <point x="806.0" y="939.0" type="line"/>
      <point x="781.0" y="939.0" type="line"/>
      <point x="729.0" y="699.0" type="line"/>
      <point x="297.0" y="691.0" type="line"/>
      <point x="297.0" y="651.0" type="line"/>
      <point x="729.0" y="646.0" type="line"/>
      <point x="781.0" y="404.0" type="line"/>
      <point x="806.0" y="404.0" type="line"/>
      <point x="792.0" y="671.0" type="line"/>
    </contour>
    <contour>
      <point x="956.0" y="1377.0" type="line"/>
      <point x="881.0" y="1340.0" type="line"/>
      <point x="245.0" y="1340.0" type="line"/>
      <point x="245.0" y="1294.0" type="line"/>
      <point x="927.0" y="1294.0" type="line"/>
      <point x="869.0" y="1313.0" type="line"/>
      <point x="993.0" y="1002.0" type="line"/>
      <point x="1016.0" y="1006.0" type="line"/>
      <point x="966.0" y="1377.0" type="line"/>
    </contour>
    <contour>
      <point x="319.0" y="1340.0" type="line"/>
      <point x="71.0" y="1340.0" type="line"/>
      <point x="71.0" y="1318.0" type="line"/>
      <point x="243.0" y="1288.0" type="line"/>
      <point x="243.0" y="52.0" type="line"/>
      <point x="71.0" y="22.0" type="line"/>
      <point x="71.0" y="0.0" type="line"/>
      <point x="491.0" y="0.0" type="line"/>
      <point x="491.0" y="22.0" type="line"/>
      <point x="319.0" y="52.0" type="line"/>
    </contour>
  </outline>
</glyph>
<glyph name="H" format="2">
  <advance width="1462.0"/>
  <unicode hex="0048"/>
  <anchor x="731.0" y="1340" name="UCtop"/>
  <anchor x="731.0" y="0" name="bottom"/>
  <outline>
    <contour>
      <point x="319.0" y="52.0" type="line"/>
      <point x="319.0" y="1288.0" type="line"/>
      <point x="491.0" y="1318.0" type="line"/>
      <point x="491.0" y="1340.0" type="line"/>
      <point x="71.0" y="1340.0" type="line"/>
      <point x="71.0" y="1318.0" type="line"/>
      <point x="243.0" y="1288.0" type="line"/>
      <point x="243.0" y="52.0" type="line"/>
      <point x="71.0" y="22.0" type="line"/>
      <point x="71.0" y="0.0" type="line"/>
      <point x="491.0" y="0.0" type="line"/>
      <point x="491.0" y="22.0" type="line"/>
    </contour>
    <contour>
      <point x="1219.0" y="52.0" type="line"/>
      <point x="1219.0" y="1288.0" type="line"/>
      <point x="1391.0" y="1318.0" type="line"/>
      <point x="1391.0" y="1340.0" type="line"/>
      <point x="971.0" y="1340.0" type="line"/>
      <point x="971.0" y="1318.0" type="line"/>
      <point x="1143.0" y="1288.0" type="line"/>
      <point x="1143.0" y="52.0" type="line"/>
      <point x="971.0" y="22.0" type="line"/>
      <point x="971.0" y="0.0" type="line"/>
      <point x="1391.0" y="0.0" type="line"/>
      <point x="1391.0" y="22.0" type="line"/>
    </contour>
    <contour>
      <point x="259.0" y="666.0" type="line"/>
      <point x="1202.0" y="666.0" type="line"/>
      <point x="1202.0" y="712.0" type="line"/>
      <point x="259.0" y="712.0" type="line"/>
    </contour>
  </outline>
</glyph>
<glyph name="K" format="2">
  <advance width="1321.0"/>
  <unicode hex="004B"/>
  <anchor x="628.0" y="1340" name="UCtop"/>
  <anchor x="671.0" y="0" name="bottom"/>
  <outline>
    <contour>
      <point x="1172.0" y="52.0" type="line"/>
      <point x="483.0" y="739.0" type="line"/>
      <point x="480.0" y="691.0" type="line"/>
      <point x="1059.0" y="1288.0" type="line"/>
      <point x="1231.0" y="1318.0" type="line"/>
      <point x="1231.0" y="1340.0" type="line"/>
      <point x="826.0" y="1340.0" type="line"/>
      <point x="826.0" y="1318.0" type="line"/>
      <point x="998.0" y="1288.0" type="line"/>
      <point x="455.0" y="723.0" type="line"/>
      <point x="297.0" y="723.0" type="line"/>
      <point x="297.0" y="677.0" type="line"/>
      <point x="448.0" y="677.0" type="line"/>
      <point x="1071.0" y="52.0" type="line"/>
      <point x="899.0" y="22.0" type="line"/>
      <point x="899.0" y="0.0" type="line"/>
      <point x="1331.0" y="0.0" type="line"/>
      <point x="1331.0" y="22.0" type="line"/>
    </contour>
    <contour>
      <point x="319.0" y="1288.0" type="line"/>
      <point x="491.0" y="1318.0" type="line"/>
      <point x="491.0" y="1340.0" type="line"/>
      <point x="71.0" y="1340.0" type="line"/>
      <point x="71.0" y="1318.0" type="line"/>
      <point x="243.0" y="1288.0" type="line"/>
      <point x="243.0" y="52.0" type="line"/>
      <point x="71.0" y="22.0" type="line"/>
      <point x="71.0" y="0.0" type="line"/>
      <point x="491.0" y="0.0" type="line"/>
      <point x="491.0" y="22.0" type="line"/>
      <point x="319.0" y="52.0" type="line"/>
    </contour>
  </outline>
</glyph>
<glyph name="M" format="2">
  <advance width="1813.0"/>
  <unicode hex="004D"/>
  <anchor x="885.0" y="1340" name="UCtop"/>
  <anchor x="885.0" y="0" name="bottom"/>
  <outline>
    <contour>
      <point x="1601.0" y="52.0" type="line"/>
      <point x="1515.0" y="1288.0" type="line"/>
      <point x="1707.0" y="1318.0" type="line"/>
      <point x="1707.0" y="1340.0" type="line"/>
      <point x="1441.0" y="1340.0" type="line"/>
      <point x="884.0" y="67.0" type="line"/>
      <point x="907.0" y="66.0" type="line"/>
      <point x="381.0" y="1340.0" type="line"/>
      <point x="118.0" y="1340.0" type="line"/>
      <point x="118.0" y="1318.0" type="line"/>
      <point x="300.0" y="1281.0" type="line"/>
      <point x="210.0" y="52.0" type="line"/>
      <point x="38.0" y="22.0" type="line"/>
      <point x="38.0" y="0.0" type="line"/>
      <point x="428.0" y="0.0" type="line"/>
      <point x="428.0" y="22.0" type="line"/>
      <point x="256.0" y="52.0" type="line"/>
      <point x="344.0" y="1275.0" type="line"/>
      <point x="331.0" y="1273.0" type="line"/>
      <point x="865.0" y="-20.0" type="line"/>
      <point x="892.0" y="-20.0" type="line"/>
      <point x="1459.0" y="1274.0" type="line"/>
      <point x="1445.0" y="1277.0" type="line"/>
      <point x="1527.0" y="52.0" type="line"/>
      <point x="1355.0" y="22.0" type="line"/>
      <point x="1355.0" y="0.0" type="line"/>
      <point x="1773.0" y="0.0" type="line"/>
      <point x="1773.0" y="22.0" type="line"/>
    </contour>
  </outline>
</glyph>
<glyph name="N" format="2">
  <advance width="1467.0"/>
  <unicode hex="004E"/>
  <guideline x="324.0" y="1340" angle="347.2170972270035" identifier="6quS7ljdWQ"/>
  <anchor x="745.0" y="1340" name="UCtop"/>
  <anchor x="765.0" y="0" name="bottom"/>
  <outline>
    <contour>
      <point x="248.0" y="52.0" type="line"/>
      <point x="76.0" y="22.0" type="line"/>
      <point x="76.0" y="0.0" type="line"/>
      <point x="468.0" y="0.0" type="line"/>
      <point x="468.0" y="22.0" type="line"/>
      <point x="296.0" y="52.0" type="line"/>
      <point x="296.0" y="1300.0" type="line"/>
      <point x="267.0" y="1286.0" type="line"/>
      <point x="1203.0" y="-20.0" type="line"/>
      <point x="1234.0" y="-20.0" type="line"/>
      <point x="1234.0" y="1288.0" type="line"/>
      <point x="1406.0" y="1318.0" type="line"/>
      <point x="1406.0" y="1340.0" type="line"/>
      <point x="1014.0" y="1340.0" type="line"/>
      <point x="1014.0" y="1318.0" type="line"/>
      <point x="1186.0" y="1288.0" type="line"/>
      <point x="1186.0" y="40.0" type="line"/>
      <point x="1230.0" y="71.0" type="line"/>
      <point x="324.0" y="1340.0" type="line"/>
      <point x="62.0" y="1340.0" type="line"/>
      <point x="62.0" y="1318.0" type="line"/>
      <point x="248.0" y="1281.0" type="line"/>
    </contour>
  </outline>
</glyph>
<glyph name="O" format="2">
  <advance width="1482.0"/>
  <unicode hex="004F"/>
  <anchor x="741" y="1340" name="UCtop"/>
  <anchor x="741" y="0" name="bottom"/>
  <anchor x="911" y="0" name="right"/>
  <anchor x="1052" y="1340" name="horn"/>
  <outline>
    <contour>
      <point x="730.0" y="1360.0" type="curve" smooth="yes"/>
      <point x="366.0" y="1360.0"/>
      <point x="100.0" y="1069.0"/>
      <point x="100.0" y="669.0" type="curve" smooth="yes"/>
      <point x="100.0" y="271.0"/>
      <point x="380.0" y="-20.0"/>
      <point x="752.0" y="-20.0" type="curve" smooth="yes"/>
      <point x="1116.0" y="-20.0"/>
      <point x="1382.0" y="271.0"/>
      <point x="1382.0" y="671.0" type="curve" smooth="yes"/>
      <point x="1382.0" y="1069.0"/>
      <point x="1102.0" y="1360.0"/>
    </contour>
    <contour>
      <point x="749.0" y="23.0" type="curve" smooth="yes"/>
      <point x="419.0" y="23.0"/>
      <point x="182.0" y="273.0"/>
      <point x="182.0" y="681.0" type="curve" smooth="yes"/>
      <point x="182.0" y="1050.0"/>
      <point x="384.0" y="1317.0"/>
      <point x="733.0" y="1317.0" type="curve" smooth="yes"/>
      <point x="1063.0" y="1317.0"/>
      <point x="1300.0" y="1067.0"/>
      <point x="1300.0" y="659.0" type="curve" smooth="yes"/>
      <point x="1300.0" y="290.0"/>
      <point x="1098.0" y="23.0"/>
    </contour>
  </outline>
</glyph>
<glyph name="R" format="2">
  <advance width="1166"/>
  <unicode hex="0052"/>
  <anchor x="552.0" y="1340" name="UCtop"/>
  <anchor x="672.0" y="0" name="bottom"/>
  <outline>
    <contour>
      <point x="557.0" y="709.0" type="curve" smooth="yes"/>
      <point x="250.0" y="709.0" type="line"/>
      <point x="259.0" y="663.0" type="line"/>
      <point x="596.0" y="663.0" type="line" smooth="yes"/>
      <point x="701.0" y="663.0"/>
      <point x="739.0" y="615.0"/>
      <point x="806.0" y="455.0" type="curve" smooth="yes"/>
      <point x="917.0" y="189.0" type="line" smooth="yes"/>
      <point x="997.0" y="-3.0"/>
      <point x="1019.0" y="-12.0"/>
      <point x="1193.0" y="0.0" type="curve"/>
      <point x="1193.0" y="24.0" type="line"/>
      <point x="1086.0" y="24.0"/>
      <point x="1061.0" y="48.0"/>
      <point x="1002.0" y="188.0" type="curve" smooth="yes"/>
      <point x="878.0" y="480.0" type="line" smooth="yes"/>
      <point x="812.0" y="636.0"/>
      <point x="752.0" y="687.0"/>
      <point x="631.0" y="691.0" type="curve"/>
      <point x="631.0" y="684.0" type="line"/>
      <point x="837.0" y="716.0"/>
      <point x="952.0" y="846.0"/>
      <point x="952.0" y="1008.0" type="curve" smooth="yes"/>
      <point x="952.0" y="1195.0"/>
      <point x="827.0" y="1340.0"/>
      <point x="490.0" y="1340.0" type="curve" smooth="yes"/>
      <point x="218.0" y="1340.0" type="line"/>
      <point x="243.0" y="1294.0" type="line"/>
      <point x="431.0" y="1294.0" type="line" smooth="yes"/>
      <point x="759.0" y="1294.0"/>
      <point x="870.0" y="1185.0"/>
      <point x="870.0" y="1006.0" type="curve" smooth="yes"/>
      <point x="870.0" y="810.0"/>
      <point x="739.0" y="709.0"/>
    </contour>
    <contour>
      <point x="319.0" y="1340.0" type="line"/>
      <point x="71.0" y="1340.0" type="line"/>
      <point x="71.0" y="1318.0" type="line"/>
      <point x="243.0" y="1288.0" type="line"/>
      <point x="243.0" y="52.0" type="line"/>
      <point x="71.0" y="22.0" type="line"/>
      <point x="71.0" y="0.0" type="line"/>
      <point x="511.0" y="0.0" type="line"/>
      <point x="511.0" y="22.0" type="line"/>
      <point x="319.0" y="52.0" type="line"/>
    </contour>
  </outline>
</glyph>
<glyph name="V" format="2">
  <advance width="1330.0"/>
  <unicode hex="0056"/>
  <anchor x="687.0" y="1340" name="UCtop"/>
  <anchor x="677.0" y="0" name="bottom"/>
  <outline>
    <contour>
      <point x="160.0" y="1288.0" type="line"/>
      <point x="668.0" y="-20.0" type="line"/>
      <point x="689.0" y="-20.0" type="line"/>
      <point x="1160.0" y="1288.0" type="line"/>
      <point x="1333.0" y="1318.0" type="line"/>
      <point x="1333.0" y="1340.0" type="line"/>
      <point x="941.0" y="1340.0" type="line"/>
      <point x="941.0" y="1318.0" type="line"/>
      <point x="1113.0" y="1288.0" type="line"/>
      <point x="678.0" y="75.0" type="line"/>
      <point x="706.0" y="75.0" type="line"/>
      <point x="240.0" y="1288.0" type="line"/>
      <point x="412.0" y="1318.0" type="line"/>
      <point x="412.0" y="1340.0" type="line"/>
      <point x="-12.0" y="1340.0" type="line"/>
      <point x="-12.0" y="1318.0" type="line"/>
    </contour>
  </outline>
</glyph>
<glyph name="W" format="2">
  <advance width="1838.0"/>
  <unicode hex="0057"/>
  <guideline x="727.0" y="146" angle="180.0" identifier="WwMwd6auiN"/>
  <anchor x="922.0" y="1340" name="UCtop"/>
  <anchor x="922.0" y="0" name="bottom"/>
  <outline>
    <contour>
      <point x="950.0" y="1233.0" type="line"/>
      <point x="929.0" y="1233.0" type="line"/>
      <point x="1317.0" y="-20.0" type="line"/>
      <point x="1339.0" y="-20.0" type="line"/>
      <point x="1670.0" y="1288.0" type="line"/>
      <point x="1843.0" y="1318.0" type="line"/>
      <point x="1843.0" y="1340.0" type="line"/>
      <point x="1451.0" y="1340.0" type="line"/>
      <point x="1451.0" y="1318.0" type="line"/>
      <point x="1623.0" y="1288.0" type="line"/>
      <point x="1320.0" y="75.0" type="line"/>
      <point x="1359.0" y="85.0" type="line"/>
      <point x="966.0" y="1360.0" type="line"/>
      <point x="944.0" y="1360.0" type="line"/>
      <point x="488.0" y="75.0" type="line"/>
      <point x="528.0" y="85.0" type="line"/>
      <point x="250.0" y="1288.0" type="line"/>
      <point x="422.0" y="1318.0" type="line"/>
      <point x="422.0" y="1340.0" type="line"/>
      <point x="2.0" y="1340.0" type="line"/>
      <point x="2.0" y="1318.0" type="line"/>
      <point x="174.0" y="1288.0" type="line"/>
      <point x="482.0" y="-20.0" type="line"/>
      <point x="503.0" y="-20.0" type="line"/>
    </contour>
  </outline>
</glyph>
<glyph name="backslash" format="2">
  <advance width="746.0"/>
  <unicode hex="005C"/>
  <outline>
    <contour>
      <point x="685.0" y="0.0" type="line"/>
      <point x="125.0" y="1340.0" type="line"/>
      <point x="62.0" y="1340.0" type="line"/>
      <point x="622.0" y="0.0" type="line"/>
    </contour>
  </outline>
</glyph>
<glyph name="bracketright" format="2">
  <advance width="513.0"/>
  <unicode hex="005D"/>
  <outline>
    <contour>
      <point x="321.0" y="1400.0" type="line"/>
      <point x="34.0" y="1400.0" type="line"/>
      <point x="34.0" y="1360.0" type="line"/>
      <point x="252.0" y="1360.0" type="line"/>
      <point x="252.0" y="-214.0" type="line"/>
      <point x="34.0" y="-214.0" type="line"/>
      <point x="34.0" y="-254.0" type="line"/>
      <point x="321.0" y="-254.0" type="line"/>
    </contour>
  </outline>
</glyph>
<glyph name="c" format="2">
  <advance width="847.0"/>
  <unicode hex="0063"/>
  <anchor x="459.0" y="852.0" name="top"/>
  <anchor x="795.0" y="0" name="right"/>
  <anchor x="475.0" y="0" name="bottom"/>
  <outline>
    <contour>
      <point x="516.0" y="872.0" type="curve" smooth="yes"/>
      <point x="235.0" y="872.0"/>
      <point x="80.0" y="664.0"/>
      <point x="80.0" y="418.0" type="curve" smooth="yes"/>
      <point x="80.0" y="153.0"/>
      <point x="232.99999999999997" y="-20.0"/>
      <point x="472.0" y="-20.0" type="curve" smooth="yes"/>
      <point x="596.0" y="-20.0"/>
      <point x="674.0" y="26.0"/>
      <point x="795.0" y="132.0" type="curve"/>
      <point x="779.0" y="153.0" type="line"/>
      <point x="678.0" y="67.0"/>
      <point x="604.0" y="42.0"/>
      <point x="511.0" y="42.0" type="curve" smooth="yes"/>
      <point x="289.0" y="42.0"/>
      <point x="151.0" y="194.0"/>
      <point x="151.0" y="442.0" type="curve" smooth="yes"/>
      <point x="151.0" y="699.0"/>
      <point x="301.0" y="831.0"/>
      <point x="472.0" y="831.0" type="curve" smooth="yes"/>
      <point x="637.0" y="831.0"/>
      <point x="639.0" y="713.0"/>
      <point x="726.0" y="713.0" type="curve" smooth="yes"/>
      <point x="757.0" y="713.0"/>
      <point x="780.0" y="741.0"/>
      <point x="780.0" y="771.0" type="curve" smooth="yes"/>
      <point x="780.0" y="827.0"/>
      <point x="693.0" y="872.0"/>
    </contour>
  </outline>
</glyph>
<glyph name="e" format="2">
  <advance width="864"/>
  <unicode hex="0065"/>
  <anchor x="454.0" y="852.0" name="top"/>
  <anchor x="796.0" y="0" name="right"/>
  <anchor x="454.0" y="0" name="bottom"/>
  <outline>
    <contour>
      <point x="473.0" y="872.0" type="curve" smooth="yes"/>
      <point x="230.0" y="872.0"/>
      <point x="81.0" y="665.0"/>
      <point x="81.0" y="413.0" type="curve" smooth="yes"/>
      <point x="81.0" y="151.0"/>
      <point x="234.0" y="-20.0"/>
      <point x="473.0" y="-20.0" type="curve" smooth="yes"/>
      <point x="597.0" y="-20.0"/>
      <point x="675.0" y="26.0"/>
      <point x="796.0" y="132.0" type="curve"/>
      <point x="780.0" y="153.0" type="line"/>
      <point x="679.0" y="67.0"/>
      <point x="605.0" y="42.0"/>
      <point x="512.0" y="42.0" type="curve" smooth="yes"/>
      <point x="290.0" y="42.0"/>
      <point x="152.0" y="194.0"/>
      <point x="152.0" y="442.0" type="curve" smooth="yes"/>
      <point x="152.0" y="694.0"/>
      <point x="265.0" y="831.0"/>
      <point x="444.0" y="831.0" type="curve" smooth="yes"/>
      <point x="601.0" y="831.0"/>
      <point x="692.0" y="726.0"/>
      <point x="704.0" y="541.0" type="curve"/>
      <point x="728.0" y="586.0" type="line"/>
      <point x="146.0" y="559.0" type="line"/>
      <point x="146.0" y="530.0" type="line"/>
      <point x="784.0" y="530.0" type="line"/>
      <point x="770.0" y="717.0"/>
      <point x="683.0" y="872.0"/>
    </contour>
  </outline>
</glyph>
<glyph name="f" format="2">
  <advance width="606.0"/>
  <unicode hex="0066"/>
  <anchor x="506.0" y="1340" name="UCtop"/>
  <anchor x="251.0" y="0" name="bottom"/>
  <outline>
    <contour>
      <point x="262.0" y="798.0" type="line"/>
      <point x="581.0" y="798.0" type="line"/>
      <point x="594.0" y="852.0" type="line"/>
      <point x="247.0" y="852.0" type="line"/>
      <point x="231.0" y="859.0" type="line"/>
      <point x="27.0" y="826.0" type="line"/>
      <point x="27.0" y="806.0" type="line"/>
      <point x="218.0" y="790.0" type="line"/>
    </contour>
    <contour>
      <point x="286.0" y="49.0" type="line"/>
      <point x="286.0" y="966.0" type="line" smooth="yes"/>
      <point x="286.0" y="1245.0"/>
      <point x="406.0" y="1361.0"/>
      <point x="567.0" y="1361.0" type="curve" smooth="yes"/>
      <point x="674.0" y="1361.0"/>
      <point x="699.0" y="1284.0"/>
      <point x="752.0" y="1284.0" type="curve" smooth="yes"/>
      <point x="795.0" y="1284.0"/>
      <point x="820.0" y="1317.0"/>
      <point x="820.0" y="1349.0" type="curve" smooth="yes"/>
      <point x="820.0" y="1389.0"/>
      <point x="778.0" y="1419.0"/>
      <point x="675.0" y="1419.0" type="curve" smooth="yes"/>
      <point x="460.0" y="1419.0"/>
      <point x="216.0" y="1303.0"/>
      <point x="216.0" y="925.0" type="curve" smooth="yes"/>
      <point x="216.0" y="49.0" type="line"/>
      <point x="64.0" y="23.0" type="line"/>
      <point x="64.0" y="0.0" type="line"/>
      <point x="458.0" y="0.0" type="line"/>
      <point x="458.0" y="23.0" type="line"/>
    </contour>
  </outline>
</glyph>
<glyph name="i" format="2">
  <advance width="469.0"/>
  <unicode hex="0069"/>
  <anchor x="229.0" y="1340" name="top"/>
  <anchor x="243.0" y="0" name="bottom"/>
  <anchor x="385.0" y="0" name="right"/>
  <outline>
    <contour>
      <point x="231.0" y="1260.0" type="curve" smooth="yes"/>
      <point x="282.0" y="1260.0"/>
      <point x="312.0" y="1295.0"/>
      <point x="312.0" y="1341.0" type="curve" smooth="yes"/>
      <point x="312.0" y="1385.0"/>
      <point x="282.0" y="1419.0"/>
      <point x="231.0" y="1419.0" type="curve" smooth="yes"/>
      <point x="183.0" y="1419.0"/>
      <point x="150.0" y="1385.0"/>
      <point x="150.0" y="1341.0" type="curve" smooth="yes"/>
      <point x="150.0" y="1295.0"/>
      <point x="183.0" y="1260.0"/>
    </contour>
    <contour>
      <point x="288.0" y="872.0" type="line"/>
      <point x="280.0" y="872.0" type="line"/>
      <point x="48.0" y="819.0" type="line"/>
      <point x="48.0" y="798.0" type="line"/>
      <point x="109.0" y="785.8"/>
      <point x="186.0" y="770.4"/>
      <point x="208.0" y="766.0" type="curve"/>
      <point x="208.0" y="49.0" type="line"/>
      <point x="56.0" y="23.0" type="line"/>
      <point x="56.0" y="0.0" type="line"/>
      <point x="430.0" y="0.0" type="line"/>
      <point x="430.0" y="23.0" type="line"/>
      <point x="278.0" y="49.0" type="line"/>
      <point x="278.0" y="777.0" type="line"/>
    </contour>
  </outline>
</glyph>
<glyph name="j" format="2">
  <advance width="407.0"/>
  <unicode hex="006A"/>
  <anchor x="212.0" y="1340" name="top"/>
  <anchor x="203.0" y="-510" name="bottom"/>
  <outline>
    <contour>
      <point x="214.0" y="1260.0" type="curve" smooth="yes"/>
      <point x="265.0" y="1260.0"/>
      <point x="295.0" y="1295.0"/>
      <point x="295.0" y="1341.0" type="curve" smooth="yes"/>
      <point x="295.0" y="1385.0"/>
      <point x="265.0" y="1419.0"/>
      <point x="214.0" y="1419.0" type="curve" smooth="yes"/>
      <point x="166.0" y="1419.0"/>
      <point x="133.0" y="1385.0"/>
      <point x="133.0" y="1341.0" type="curve" smooth="yes"/>
      <point x="133.0" y="1295.0"/>
      <point x="166.0" y="1260.0"/>
    </contour>
    <contour>
      <point x="92.0" y="785.8"/>
      <point x="169.0" y="770.4"/>
      <point x="191.0" y="766.0" type="curve"/>
      <point x="191.0" y="-162.0" type="line" smooth="yes"/>
      <point x="191.0" y="-289.0"/>
      <point x="184.0" y="-331.0"/>
      <point x="39.0" y="-511.0" type="curve"/>
      <point x="60.0" y="-530.0" type="line"/>
      <point x="236.0" y="-347.0"/>
      <point x="261.0" y="-320.0"/>
      <point x="261.0" y="-143.0" type="curve" smooth="yes"/>
      <point x="261.0" y="777.0" type="line"/>
      <point x="271.0" y="872.0" type="line"/>
      <point x="263.0" y="872.0" type="line"/>
      <point x="31.0" y="819.0" type="line"/>
      <point x="31.0" y="798.0" type="line"/>
    </contour>
  </outline>
</glyph>
<glyph name="k" format="2">
  <advance width="1011.0"/>
  <unicode hex="006B"/>
  <guideline x="444.0" y="506" angle="183.94366182243104" identifier="INDAYbbs2a"/>
  <anchor x="509.0" y="1340" name="UCtop"/>
  <anchor x="516.0" y="0" name="bottom"/>
  <outline>
    <contour>
      <point x="444.0" y="480.0" type="line"/>
      <point x="799.0" y="803.0" type="line"/>
      <point x="952.0" y="830.0" type="line"/>
      <point x="952.0" y="852.0" type="line"/>
      <point x="592.0" y="852.0" type="line"/>
      <point x="592.0" y="830.0" type="line"/>
      <point x="744.0" y="803.0" type="line"/>
      <point x="405.0" y="492.0" type="line"/>
      <point x="239.0" y="492.0" type="line"/>
      <point x="239.0" y="452.0" type="line"/>
      <point x="405.0" y="452.0" type="line"/>
      <point x="793.0" y="45.0" type="line"/>
      <point x="647.0" y="22.0" type="line"/>
      <point x="647.0" y="0.0" type="line"/>
      <point x="1017.0" y="0.0" type="line"/>
      <point x="1017.0" y="22.0" type="line"/>
      <point x="880.0" y="49.0" type="line"/>
      <point x="444.0" y="506.0" type="line"/>
    </contour>
    <contour>
      <point x="257.0" y="49.0" type="line"/>
      <point x="257.0" y="1307.0" type="line"/>
      <point x="257.0" y="1419.0" type="line"/>
      <point x="249.0" y="1419.0" type="line"/>
      <point x="19.0" y="1374.0" type="line"/>
      <point x="19.0" y="1360.0" type="line"/>
      <point x="97.0" y="1336.7857142857142"/>
      <point x="161.0" y="1317.7380952380952"/>
      <point x="187.0" y="1310.0" type="curve"/>
      <point x="187.0" y="49.0" type="line"/>
      <point x="35.0" y="23.0" type="line"/>
      <point x="35.0" y="0.0" type="line"/>
      <point x="409.0" y="0.0" type="line"/>
      <point x="409.0" y="23.0" type="line"/>
    </contour>
  </outline>
</glyph>
<glyph name="m" format="2">
  <advance width="1539.0"/>
  <unicode hex="006D"/>
  <anchor x="783.0" y="852.0" name="top"/>
  <anchor x="783.0" y="0" name="bottom"/>
  <outline>
    <contour>
      <point x="274.0" y="707.0" type="line"/>
      <point x="274.0" y="872.0" type="line"/>
      <point x="266.0" y="872.0" type="line"/>
      <point x="44.0" y="819.0" type="line"/>
      <point x="44.0" y="798.0" type="line"/>
      <point x="135.0" y="779.8000000000001"/>
      <point x="182.0" y="770.4"/>
      <point x="204.0" y="766.0" type="curve"/>
      <point x="204.0" y="49.0" type="line"/>
      <point x="52.0" y="23.0" type="line"/>
      <point x="52.0" y="0.0" type="line"/>
      <point x="426.0" y="0.0" type="line"/>
      <point x="426.0" y="23.0" type="line"/>
      <point x="274.0" y="49.0" type="line"/>
    </contour>
    <contour>
      <point x="818.0" y="604.0" type="line" smooth="yes"/>
      <point x="818.0" y="792.0"/>
      <point x="754.0" y="872.0"/>
      <point x="582.0" y="872.0" type="curve" smooth="yes"/>
      <point x="490.0" y="872.0"/>
      <point x="410.0" y="854.0"/>
      <point x="241.0" y="702.0" type="curve"/>
      <point x="266.0" y="690.0" type="line"/>
      <point x="374.0" y="780.0"/>
      <point x="474.0" y="803.0"/>
      <point x="541.0" y="803.0" type="curve" smooth="yes"/>
      <point x="701.0" y="803.0"/>
      <point x="748.0" y="751.0"/>
      <point x="748.0" y="564.0" type="curve" smooth="yes"/>
      <point x="748.0" y="49.0" type="line"/>
      <point x="596.0" y="23.0" type="line"/>
      <point x="596.0" y="0.0" type="line"/>
      <point x="970.0" y="0.0" type="line"/>
      <point x="970.0" y="23.0" type="line"/>
      <point x="818.0" y="49.0" type="line"/>
    </contour>
    <contour>
      <point x="1362.0" y="604.0" type="line" smooth="yes"/>
      <point x="1362.0" y="792.0"/>
      <point x="1298.0" y="872.0"/>
      <point x="1126.0" y="872.0" type="curve" smooth="yes"/>
      <point x="1034.0" y="872.0"/>
      <point x="954.0" y="854.0"/>
      <point x="785.0" y="702.0" type="curve"/>
      <point x="810.0" y="690.0" type="line"/>
      <point x="918.0" y="780.0"/>
      <point x="1018.0" y="803.0"/>
      <point x="1085.0" y="803.0" type="curve" smooth="yes"/>
      <point x="1245.0" y="803.0"/>
      <point x="1292.0" y="751.0"/>
      <point x="1292.0" y="564.0" type="curve" smooth="yes"/>
      <point x="1292.0" y="49.0" type="line"/>
      <point x="1140.0" y="23.0" type="line"/>
      <point x="1140.0" y="0.0" type="line"/>
      <point x="1514.0" y="0.0" type="line"/>
      <point x="1514.0" y="23.0" type="line"/>
      <point x="1362.0" y="49.0" type="line"/>
    </contour>
  </outline>
</glyph>
<glyph name="n" format="2">
  <advance width="1045.0"/>
  <unicode hex="006E"/>
  <anchor x="503.0" y="852.0" name="top"/>
  <anchor x="531.0" y="0" name="bottom"/>
  <outline>
    <contour>
      <point x="274.0" y="707.0" type="line"/>
      <point x="274.0" y="872.0" type="line"/>
      <point x="266.0" y="872.0" type="line"/>
      <point x="44.0" y="819.0" type="line"/>
      <point x="44.0" y="798.0" type="line"/>
      <point x="135.0" y="779.8000000000001"/>
      <point x="182.0" y="770.4"/>
      <point x="204.0" y="766.0" type="curve"/>
      <point x="204.0" y="49.0" type="line"/>
      <point x="52.0" y="23.0" type="line"/>
      <point x="52.0" y="0.0" type="line"/>
      <point x="426.0" y="0.0" type="line"/>
      <point x="426.0" y="23.0" type="line"/>
      <point x="274.0" y="49.0" type="line"/>
    </contour>
    <contour>
      <point x="647.0" y="23.0" type="line"/>
      <point x="647.0" y="0.0" type="line"/>
      <point x="1021.0" y="0.0" type="line"/>
      <point x="1021.0" y="23.0" type="line"/>
      <point x="869.0" y="49.0" type="line"/>
      <point x="869.0" y="581.0" type="line" smooth="yes"/>
      <point x="869.0" y="785.0"/>
      <point x="799.0" y="872.0"/>
      <point x="613.0" y="872.0" type="curve" smooth="yes"/>
      <point x="512.0" y="872.0"/>
      <point x="426.0" y="852.0"/>
      <point x="242.0" y="687.0" type="curve"/>
      <point x="269.0" y="679.0" type="line"/>
      <point x="388.0" y="777.0"/>
      <point x="498.0" y="803.0"/>
      <point x="571.0" y="803.0" type="curve" smooth="yes"/>
      <point x="747.0" y="803.0"/>
      <point x="799.0" y="745.0"/>
      <point x="799.0" y="539.0" type="curve" smooth="yes"/>
      <point x="799.0" y="49.0" type="line"/>
    </contour>
  </outline>
</glyph>
<glyph name="o" format="2">
  <advance width="989.0"/>
  <unicode hex="006F"/>
  <anchor x="494" y="852.0" name="top"/>
  <anchor x="494" y="0" name="bottom"/>
  <anchor x="621" y="852.0" name="horn"/>
  <anchor x="679" y="0" name="right"/>
  <outline>
    <contour>
      <point x="499.0" y="16.0" type="curve" smooth="yes"/>
      <point x="298.0" y="16.0"/>
      <point x="162.0" y="184.0"/>
      <point x="162.0" y="440.0" type="curve" smooth="yes"/>
      <point x="162.0" y="706.0"/>
      <point x="307.0" y="836.0"/>
      <point x="490.0" y="836.0" type="curve" smooth="yes"/>
      <point x="691.0" y="836.0"/>
      <point x="827.0" y="668.0"/>
      <point x="827.0" y="412.0" type="curve" smooth="yes"/>
      <point x="827.0" y="146.0"/>
      <point x="682.0" y="16.0"/>
    </contour>
    <contour>
      <point x="494.0" y="-20.0" type="curve" smooth="yes"/>
      <point x="735.0" y="-20.0"/>
      <point x="909.0" y="155.0"/>
      <point x="909.0" y="435.0" type="curve" smooth="yes"/>
      <point x="909.0" y="702.0"/>
      <point x="732.0" y="872.0"/>
      <point x="495.0" y="872.0" type="curve" smooth="yes"/>
      <point x="254.0" y="872.0"/>
      <point x="80.0" y="697.0"/>
      <point x="80.0" y="417.0" type="curve" smooth="yes"/>
      <point x="80.0" y="150.0"/>
      <point x="257.0" y="-20.0"/>
    </contour>
  </outline>
</glyph>
<glyph name="p" format="2">
  <advance width="1037"/>
  <unicode hex="0070"/>
  <anchor x="543.0" y="852.0" name="top"/>
  <anchor x="224.0" y="-510" name="bottom"/>
  <outline>
    <contour>
      <point x="883.0" y="433.0" type="curve" smooth="yes"/>
      <point x="883.0" y="175.0"/>
      <point x="746.0" y="24.0"/>
      <point x="502.0" y="24.0" type="curve" smooth="yes"/>
      <point x="367.0" y="24.0"/>
      <point x="259.0" y="91.0"/>
      <point x="259.0" y="183.0" type="curve" smooth="yes"/>
      <point x="259.0" y="727.0" type="line"/>
      <point x="259.0" y="872.0" type="line"/>
      <point x="251.0" y="872.0" type="line"/>
      <point x="29.0" y="819.0" type="line"/>
      <point x="29.0" y="798.0" type="line"/>
      <point x="103.0" y="783.2"/>
      <point x="163.0" y="771.2"/>
      <point x="189.0" y="766.0" type="curve"/>
      <point x="189.0" y="-461.0" type="line"/>
      <point x="37.0" y="-487.0" type="line"/>
      <point x="37.0" y="-510.0" type="line"/>
      <point x="431.0" y="-510.0" type="line"/>
      <point x="431.0" y="-487.0" type="line"/>
      <point x="259.0" y="-461.0" type="line"/>
      <point x="259.0" y="78.0" type="line"/>
      <point x="211.0" y="78.0" type="line"/>
      <point x="262.0" y="19.0"/>
      <point x="380.0" y="-20.0"/>
      <point x="503.0" y="-20.0" type="curve" smooth="yes"/>
      <point x="721.0" y="-20.0"/>
      <point x="956.0" y="140.0"/>
      <point x="956.0" y="456.0" type="curve" smooth="yes"/>
      <point x="956.0" y="722.0"/>
      <point x="818.0" y="872.0"/>
      <point x="561.0" y="872.0" type="curve" smooth="yes"/>
      <point x="478.0" y="872.0"/>
      <point x="431.0" y="853.0"/>
      <point x="204.0" y="717.0" type="curve"/>
      <point x="204.0" y="678.0" type="line"/>
      <point x="332.0" y="769.0"/>
      <point x="439.0" y="809.0"/>
      <point x="543.0" y="809.0" type="curve" smooth="yes"/>
      <point x="749.0" y="809.0"/>
      <point x="883.0" y="673.0"/>
    </contour>
  </outline>
</glyph>
<glyph name="t" format="2">
  <advance width="577.0"/>
  <unicode hex="0074"/>
  <anchor x="235.0" y="1340" name="right"/>
  <anchor x="353.0" y="0" name="bottom"/>
  <outline>
    <contour>
      <point x="233.0" y="200.0" type="curve" smooth="yes"/>
      <point x="233.0" y="821.0" type="line"/>
      <point x="233.0" y="937.0" type="line"/>
      <point x="224.0" y="937.0" type="line"/>
      <point x="178.0" y="908.0"/>
      <point x="111.0" y="868.0"/>
      <point x="57.0" y="836.0" type="curve"/>
      <point x="57.0" y="828.0" type="line"/>
      <point x="163.0" y="783.0" type="line"/>
      <point x="163.0" y="174.0" type="line" smooth="yes"/>
      <point x="163.0" y="44.0"/>
      <point x="255.0" y="-10.0"/>
      <point x="355.0" y="-10.0" type="curve" smooth="yes"/>
      <point x="417.0" y="-10.0"/>
      <point x="438.0" y="-6.0"/>
      <point x="570.0" y="53.0" type="curve"/>
      <point x="570.0" y="76.0" type="line"/>
      <point x="499.0" y="59.0"/>
      <point x="441.0" y="50.0"/>
      <point x="394.0" y="50.0" type="curve" smooth="yes"/>
      <point x="280.0" y="50.0"/>
      <point x="233.0" y="101.0"/>
    </contour>
    <contour>
      <point x="179.0" y="798.0" type="line"/>
      <point x="528.0" y="798.0" type="line"/>
      <point x="541.0" y="852.0" type="line"/>
      <point x="179.0" y="852.0" type="line"/>
    </contour>
  </outline>
</glyph>
<glyph name="v" format="2">
  <advance width="1011.0"/>
  <unicode hex="0076"/>
  <anchor x="511.0" y="852.0" name="top"/>
  <anchor x="516.0" y="0" name="bottom"/>
  <outline>
    <contour>
      <point x="847.0" y="803.0" type="line"/>
      <point x="979.0" y="829.0" type="line"/>
      <point x="979.0" y="852.0" type="line"/>
      <point x="652.0" y="852.0" type="line"/>
      <point x="652.0" y="829.0" type="line"/>
      <point x="804.0" y="803.0" type="line"/>
      <point x="521.0" y="42.0" type="line"/>
      <point x="549.0" y="42.0" type="line"/>
      <point x="218.0" y="803.0" type="line"/>
      <point x="370.0" y="829.0" type="line"/>
      <point x="370.0" y="852.0" type="line"/>
      <point x="-10.0" y="852.0" type="line"/>
      <point x="-10.0" y="829.0" type="line"/>
      <point x="142.0" y="803.0" type="line"/>
      <point x="503.0" y="-20.0" type="line"/>
      <point x="533.0" y="-20.0" type="line"/>
    </contour>
  </outline>
</glyph>
<glyph name="x" format="2">
  <advance width="992.0"/>
  <unicode hex="0078"/>
  <anchor x="504.0" y="852.0" name="top"/>
  <anchor x="497.0" y="0" name="bottom"/>
  <outline>
    <contour>
      <point x="840.0" y="49.0" type="line"/>
      <point x="525.0" y="467.0" type="line"/>
      <point x="513.0" y="482.0" type="line"/>
      <point x="272.0" y="803.0" type="line"/>
      <point x="424.0" y="829.0" type="line"/>
      <point x="424.0" y="852.0" type="line"/>
      <point x="44.0" y="852.0" type="line"/>
      <point x="44.0" y="829.0" type="line"/>
      <point x="186.0" y="803.0" type="line"/>
      <point x="467.0" y="430.0" type="line"/>
      <point x="477.0" y="417.0" type="line"/>
      <point x="754.0" y="49.0" type="line"/>
      <point x="602.0" y="23.0" type="line"/>
      <point x="602.0" y="0.0" type="line"/>
      <point x="982.0" y="0.0" type="line"/>
      <point x="982.0" y="23.0" type="line"/>
    </contour>
    <contour>
      <point x="502.0" y="430.0" type="line"/>
      <point x="514.0" y="438.0" type="line"/>
      <point x="812.0" y="803.0" type="line"/>
      <point x="944.0" y="829.0" type="line"/>
      <point x="944.0" y="852.0" type="line"/>
      <point x="617.0" y="852.0" type="line"/>
      <point x="617.0" y="829.0" type="line"/>
      <point x="764.0" y="803.0" type="line"/>
      <point x="494.0" y="467.0" type="line"/>
      <point x="479.0" y="456.0" type="line"/>
      <point x="145.0" y="49.0" type="line"/>
      <point x="13.0" y="23.0" type="line"/>
      <point x="13.0" y="0.0" type="line"/>
      <point x="340.0" y="0.0" type="line"/>
      <point x="340.0" y="23.0" type="line"/>
      <point x="193.0" y="49.0" type="line"/>
    </contour>
  </outline>
</glyph>
<glyph name="z" format="2">
  <advance width="790.0"/>
  <unicode hex="007A"/>
  <guideline x="63.0" y="16" angle="172.71621719868926" identifier="GTC6GxdYJG"/>
  <anchor x="407.0" y="852.0" name="top"/>
  <anchor x="401.0" y="0" name="bottom"/>
  <outline>
    <contour>
      <point x="63.0" y="0.0" type="line"/>
      <point x="688.0" y="0.0" type="line"/>
      <point x="752.0" y="269.0" type="line"/>
      <point x="725.0" y="269.0" type="line"/>
      <point x="586.0" y="32.0" type="line"/>
      <point x="620.0" y="40.0" type="line"/>
      <point x="117.0" y="40.0" type="line"/>
      <point x="149.0" y="30.0" type="line"/>
      <point x="712.0" y="838.0" type="line"/>
      <point x="712.0" y="852.0" type="line"/>
      <point x="208.0" y="852.0" type="line"/>
      <point x="134.0" y="872.0" type="line"/>
      <point x="120.0" y="872.0" type="line"/>
      <point x="80.0" y="585.0" type="line"/>
      <point x="104.0" y="585.0" type="line"/>
      <point x="223.0" y="826.0" type="line"/>
      <point x="157.0" y="812.0" type="line"/>
      <point x="659.0" y="812.0" type="line"/>
      <point x="624.0" y="820.0" type="line"/>
      <point x="63.0" y="14.0" type="line"/>
    </contour>
  </outline>
</glyph>
<glyph name="brokenbar" format="2">
  <advance width="440"/>
  <unicode hex="00A6"/>
  <outline>
    <contour>
      <point x="247.0" y="660.0" type="line"/>
      <point x="247.0" y="1470.0" type="line"/>
      <point x="193.0" y="1470.0" type="line"/>
      <point x="193.0" y="660.0" type="line"/>
    </contour>
    <contour>
      <point x="193.0" y="-530.0" type="line"/>
      <point x="247.0" y="-530.0" type="line"/>
      <point x="247.0" y="280.0" type="line"/>
      <point x="193.0" y="280.0" type="line"/>
    </contour>
  </outline>
</glyph>
<glyph name="section" format="2">
  <advance width="984.0"/>
  <unicode hex="00A7"/>
  <outline>
    <contour>
      <point x="424.0" y="-275.0" type="curve" smooth="yes"/>
      <point x="639.1842105263158" y="-275.0"/>
      <point x="794.0" y="-153.46905537459284"/>
      <point x="794.0" y="12.0" type="curve" smooth="yes"/>
      <point x="794.0" y="409.0"/>
      <point x="150.0" y="254.0"/>
      <point x="150.0" y="592.0" type="curve" smooth="yes"/>
      <point x="150.0" y="713.1056910569106"/>
      <point x="225.14509156085444" y="817.7673718532938"/>
      <point x="373.0" y="858.0" type="curve"/>
      <point x="353.0" y="881.0" type="line"/>
      <point x="164.84462109919886" y="823.6478256826435"/>
      <point x="84.0" y="714.0140845070423"/>
      <point x="84.0" y="577.0" type="curve" smooth="yes"/>
      <point x="84.0" y="186.0"/>
      <point x="730.0" y="325.0"/>
      <point x="730.0" y="-4.0" type="curve" smooth="yes"/>
      <point x="730.0" y="-153.0"/>
      <point x="612.0666666666667" y="-239.0"/>
      <point x="440.0" y="-239.0" type="curve" smooth="yes"/>
      <point x="299.0" y="-239.0"/>
      <point x="276.0" y="-89.0"/>
      <point x="192.0" y="-89.0" type="curve" smooth="yes"/>
      <point x="155.0" y="-89.0"/>
      <point x="132.0" y="-114.0"/>
      <point x="132.0" y="-147.0" type="curve" smooth="yes"/>
      <point x="132.0" y="-204.0"/>
      <point x="214.0" y="-275.0"/>
    </contour>
    <contour>
      <point x="834.0" y="533.0" type="curve" smooth="yes"/>
      <point x="834.0" y="408.679012345679"/>
      <point x="734.0" y="294.0"/>
      <point x="566.0" y="268.0" type="curve"/>
      <point x="597.0" y="244.0" type="line"/>
      <point x="787.0" y="279.0"/>
      <point x="900.0" y="414.06944444444446"/>
      <point x="900.0" y="554.0" type="curve" smooth="yes"/>
      <point x="900.0" y="946.0"/>
      <point x="262.0" y="807.0"/>
      <point x="262.0" y="1109.0" type="curve" smooth="yes"/>
      <point x="262.0" y="1238.0"/>
      <point x="359.0" y="1324.0"/>
      <point x="527.0" y="1324.0" type="curve" smooth="yes"/>
      <point x="668.0" y="1324.0"/>
      <point x="691.0" y="1174.0"/>
      <point x="775.0" y="1174.0" type="curve" smooth="yes"/>
      <point x="812.0" y="1174.0"/>
      <point x="835.0" y="1199.0"/>
      <point x="835.0" y="1232.0" type="curve" smooth="yes"/>
      <point x="835.0" y="1289.0"/>
      <point x="753.0" y="1360.0"/>
      <point x="543.0" y="1360.0" type="curve" smooth="yes"/>
      <point x="333.0" y="1360.0"/>
      <point x="197.0" y="1253.0"/>
      <point x="197.0" y="1090.0" type="curve" smooth="yes"/>
      <point x="197.0" y="720.0"/>
      <point x="834.0" y="873.0"/>
    </contour>
  </outline>
</glyph>
<glyph name="logicalnot" format="2">
  <advance width="1000.0"/>
  <unicode hex="00AC"/>
  <outline>
    <contour>
      <point x="143.0" y="648.0" type="line"/>
      <point x="143.0" y="604.0" type="line"/>
      <point x="857.0" y="604.0" type="line"/>
      <point x="857.0" y="648.0" type="line"/>
    </contour>
    <contour>
      <point x="857.0" y="648.0" type="line"/>
      <point x="813.0" y="648.0" type="line"/>
      <point x="813.0" y="224.0" type="line"/>
      <point x="857.0" y="224.0" type="line"/>
    </contour>
  </outline>
</glyph>
<glyph name="registered" format="2">
  <advance width="1091.0"/>
  <unicode hex="00AE"/>
  <outline>
    <contour>
      <point x="543.0" y="1360.0" type="curve" smooth="yes"/>
      <point x="293.0" y="1360.0"/>
      <point x="114.0" y="1183.0"/>
      <point x="114.0" y="934.0" type="curve" smooth="yes"/>
      <point x="114.0" y="686.0"/>
      <point x="293.0" y="506.0"/>
      <point x="543.0" y="506.0" type="curve" smooth="yes"/>
      <point x="795.0" y="506.0"/>
      <point x="977.0" y="686.0"/>
      <point x="977.0" y="934.0" type="curve" smooth="yes"/>
      <point x="977.0" y="1183.0"/>
      <point x="795.0" y="1360.0"/>
    </contour>
    <contour>
      <point x="543.0" y="1320.0" type="curve" smooth="yes"/>
      <point x="768.0" y="1320.0"/>
      <point x="930.0" y="1162.0"/>
      <point x="930.0" y="934.0" type="curve" smooth="yes"/>
      <point x="930.0" y="708.0"/>
      <point x="768.0" y="547.0"/>
      <point x="543.0" y="547.0" type="curve" smooth="yes"/>
      <point x="320.0" y="547.0"/>
      <point x="161.0" y="708.0"/>
      <point x="161.0" y="934.0" type="curve" smooth="yes"/>
      <point x="161.0" y="1162.0"/>
      <point x="320.0" y="1320.0"/>
    </contour>
    <contour>
      <point x="440.0" y="964.0" type="line"/>
      <point x="438.0" y="929.0" type="line"/>
      <point x="554.0" y="929.0" type="line" smooth="yes"/>
      <point x="586.0" y="929.0"/>
      <point x="602.0" y="923.0"/>
      <point x="624.0" y="873.0" type="curve" smooth="yes"/>
      <point x="664.0" y="780.0" type="line" smooth="yes"/>
      <point x="691.0" y="717.0"/>
      <point x="699.0" y="713.0"/>
      <point x="786.0" y="716.0" type="curve"/>
      <point x="786.0" y="738.0" type="line"/>
      <point x="753.0" y="737.0"/>
      <point x="742.0" y="741.0"/>
      <point x="725.0" y="782.0" type="curve" smooth="yes"/>
      <point x="681.0" y="880.0" type="line" smooth="yes"/>
      <point x="657.0" y="933.0"/>
      <point x="638.0" y="949.0"/>
      <point x="581.0" y="949.0" type="curve"/>
      <point x="581.0" y="947.0" type="line"/>
      <point x="663.0" y="954.0"/>
      <point x="705.0" y="999.0"/>
      <point x="705.0" y="1056.0" type="curve" smooth="yes"/>
      <point x="705.0" y="1118.0"/>
      <point x="664.0" y="1166.0"/>
      <point x="551.0" y="1166.0" type="curve" smooth="yes"/>
      <point x="434.0" y="1166.0" type="line"/>
      <point x="436.0" y="1133.0" type="line"/>
      <point x="500.0" y="1133.0" type="line" smooth="yes"/>
      <point x="607.0" y="1133.0"/>
      <point x="643.0" y="1104.0"/>
      <point x="643.0" y="1052.0" type="curve" smooth="yes"/>
      <point x="643.0" y="991.0"/>
      <point x="601.0" y="964.0"/>
      <point x="541.0" y="964.0" type="curve" smooth="yes"/>
    </contour>
    <contour>
      <point x="415.0" y="1134.0" type="line"/>
      <point x="415.0" y="750.0" type="line"/>
      <point x="347.0" y="735.0" type="line"/>
      <point x="347.0" y="717.0" type="line"/>
      <point x="540.0" y="717.0" type="line"/>
      <point x="540.0" y="735.0" type="line"/>
      <point x="473.0" y="750.0" type="line"/>
      <point x="473.0" y="1166.0" type="line"/>
      <point x="347.0" y="1166.0" type="line"/>
      <point x="347.0" y="1148.0" type="line"/>
    </contour>
  </outline>
</glyph>
<glyph name="uni00B3" format="2">
  <advance width="613.0"/>
  <unicode hex="00B3"/>
  <outline>
    <contour>
      <point x="187.0" y="578.0" type="curve" smooth="yes"/>
      <point x="404.0" y="578.0"/>
      <point x="547.0" y="693.0"/>
      <point x="547.0" y="858.0" type="curve" smooth="yes"/>
      <point x="547.0" y="970.0"/>
      <point x="472.0" y="1049.0"/>
      <point x="324.0" y="1020.0" type="curve"/>
      <point x="326.0" y="1008.0" type="line"/>
      <point x="433.0" y="1057.0"/>
      <point x="492.0" y="1121.0"/>
      <point x="492.0" y="1201.0" type="curve" smooth="yes"/>
      <point x="492.0" y="1293.0"/>
      <point x="428.0" y="1354.0"/>
      <point x="311.0" y="1354.0" type="curve" smooth="yes"/>
      <point x="189.0" y="1354.0"/>
      <point x="111.0" y="1276.0"/>
      <point x="81.0" y="1150.0" type="curve"/>
      <point x="109.0" y="1145.0" type="line"/>
      <point x="137.0" y="1256.0"/>
      <point x="204.0" y="1306.0"/>
      <point x="292.0" y="1306.0" type="curve" smooth="yes"/>
      <point x="380.0" y="1306.0"/>
      <point x="422.0" y="1250.0"/>
      <point x="422.0" y="1180.0" type="curve" smooth="yes"/>
      <point x="422.0" y="1099.0"/>
      <point x="374.0" y="1045.0"/>
      <point x="196.0" y="978.0" type="curve"/>
      <point x="206.0" y="949.0" type="line"/>
      <point x="255.0" y="965.0" type="line" smooth="yes"/>
      <point x="400.0" y="1012.0"/>
      <point x="479.0" y="943.0"/>
      <point x="479.0" y="833.0" type="curve" smooth="yes"/>
      <point x="479.0" y="713.0"/>
      <point x="396.0" y="625.0"/>
      <point x="269.0" y="625.0" type="curve" smooth="yes"/>
      <point x="189.0" y="625.0"/>
      <point x="163.0" y="679.0"/>
      <point x="120.0" y="679.0" type="curve" smooth="yes"/>
      <point x="87.0" y="679.0"/>
      <point x="72.0" y="660.0"/>
      <point x="72.0" y="637.0" type="curve" smooth="yes"/>
      <point x="72.0" y="602.0"/>
      <point x="99.0" y="578.0"/>
    </contour>
  </outline>
</glyph>
<glyph name="paragraph" format="2">
  <advance width="1170"/>
  <unicode hex="00B6"/>
  <outline>
    <contour>
      <point x="671.0" y="1340.0" type="line"/>
      <point x="435.0" y="1340.0" type="line" smooth="yes"/>
      <point x="159.0" y="1340.0"/>
      <point x="57.0" y="1194.0"/>
      <point x="57.0" y="1009.0" type="curve" smooth="yes"/>
      <point x="57.0" y="822.0"/>
      <point x="158.0" y="677.0"/>
      <point x="434.0" y="677.0" type="curve" smooth="yes"/>
      <point x="671.0" y="677.0" type="line"/>
    </contour>
    <contour>
      <point x="695.0" y="-255.0" type="line"/>
      <point x="695.0" y="1280.0" type="line"/>
      <point x="865.0" y="1280.0" type="line"/>
      <point x="865.0" y="1340.0" type="line"/>
      <point x="631.0" y="1340.0" type="line"/>
      <point x="631.0" y="-255.0" type="line"/>
    </contour>
    <contour>
      <point x="915.0" y="-255.0" type="line"/>
      <point x="915.0" y="1282.0" type="line"/>
      <point x="1098.0" y="1310.0" type="line"/>
      <point x="1098.0" y="1340.0" type="line"/>
      <point x="851.0" y="1340.0" type="line"/>
      <point x="851.0" y="-255.0" type="line"/>
    </contour>
  </outline>
</glyph>
<glyph name="multiply" format="2">
  <advance width="1000"/>
  <unicode hex="00D7"/>
  <outline>
    <contour>
      <point x="202.0" y="166.0" type="line"/>
      <point x="233.0" y="135.0" type="line"/>
      <point x="798.0" y="700.0" type="line"/>
      <point x="767.0" y="731.0" type="line"/>
    </contour>
    <contour>
      <point x="202.0" y="700.0" type="line"/>
      <point x="767.0" y="135.0" type="line"/>
      <point x="798.0" y="166.0" type="line"/>
      <point x="233.0" y="731.0" type="line"/>
    </contour>
  </outline>
</glyph>
<glyph name="Thorn" format="2">
  <advance width="1138.0"/>
  <unicode hex="00DE"/>
  <outline>
    <contour>
      <point x="977.0" y="692.0" type="curve" smooth="yes"/>
      <point x="977.0" y="490.0"/>
      <point x="860.0" y="366.0"/>
      <point x="518.0" y="366.0" type="curve" smooth="yes"/>
      <point x="281.0" y="366.0" type="line"/>
      <point x="281.0" y="320.0" type="line"/>
      <point x="562.0" y="320.0" type="line" smooth="yes"/>
      <point x="922.0" y="320.0"/>
      <point x="1055.0" y="483.0"/>
      <point x="1055.0" y="692.0" type="curve" smooth="yes"/>
      <point x="1055.0" y="901.0"/>
      <point x="922.0" y="1064.0"/>
      <point x="562.0" y="1064.0" type="curve" smooth="yes"/>
      <point x="281.0" y="1064.0" type="line"/>
      <point x="281.0" y="1018.0" type="line"/>
      <point x="518.0" y="1018.0" type="line" smooth="yes"/>
      <point x="860.0" y="1018.0"/>
      <point x="977.0" y="894.0"/>
    </contour>
    <contour>
      <point x="491.0" y="22.0" type="line"/>
      <point x="319.0" y="52.0" type="line"/>
      <point x="319.0" y="1288.0" type="line"/>
      <point x="491.0" y="1318.0" type="line"/>
      <point x="491.0" y="1340.0" type="line"/>
      <point x="71.0" y="1340.0" type="line"/>
      <point x="71.0" y="1318.0" type="line"/>
      <point x="243.0" y="1288.0" type="line"/>
      <point x="243.0" y="52.0" type="line"/>
      <point x="71.0" y="22.0" type="line"/>
      <point x="71.0" y="0.0" type="line"/>
      <point x="491.0" y="0.0" type="line"/>
    </contour>
  </outline>
</glyph>
<glyph name="ccedilla" format="2">
  <advance width="847.0"/>
  <unicode hex="00E7"/>
  <outline>
    <contour>
      <point x="516.0" y="872.0" type="curve" smooth="yes"/>
      <point x="235.0" y="872.0"/>
      <point x="80.0" y="664.0"/>
      <point x="80.0" y="418.0" type="curve" smooth="yes"/>
      <point x="80.0" y="153.0"/>
      <point x="233.0" y="-20.0"/>
      <point x="472.0" y="-20.0" type="curve" smooth="yes"/>
      <point x="596.0" y="-20.0"/>
      <point x="674.0" y="26.0"/>
      <point x="795.0" y="132.0" type="curve"/>
      <point x="779.0" y="153.0" type="line"/>
      <point x="678.0" y="67.0"/>
      <point x="604.0" y="42.0"/>
      <point x="511.0" y="42.0" type="curve" smooth="yes"/>
      <point x="289.0" y="42.0"/>
      <point x="151.0" y="194.0"/>
      <point x="151.0" y="442.0" type="curve" smooth="yes"/>
      <point x="151.0" y="699.0"/>
      <point x="301.0" y="831.0"/>
      <point x="472.0" y="831.0" type="curve" smooth="yes"/>
      <point x="637.0" y="831.0"/>
      <point x="639.0" y="713.0"/>
      <point x="726.0" y="713.0" type="curve" smooth="yes"/>
      <point x="757.0" y="713.0"/>
      <point x="780.0" y="741.0"/>
      <point x="780.0" y="771.0" type="curve" smooth="yes"/>
      <point x="780.0" y="827.0"/>
      <point x="693.0" y="872.0"/>
    </contour>
    <contour>
      <point x="371.0" y="-530.0" type="curve" smooth="yes"/>
      <point x="512.0" y="-530.0"/>
      <point x="607.0" y="-439.0"/>
      <point x="607.0" y="-332.0" type="curve" smooth="yes"/>
      <point x="607.0" y="-262.0"/>
      <point x="552.0" y="-195.0"/>
      <point x="368.0" y="-146.0" type="curve"/>
      <point x="380.0" y="-168.0" type="line"/>
      <point x="503.0" y="0.0" type="line"/>
      <point x="458.0" y="0.0" type="line"/>
      <point x="312.0" y="-206.0" type="line"/>
      <point x="312.0" y="-210.0" type="line"/>
      <point x="493.0" y="-254.0"/>
      <point x="542.0" y="-302.0"/>
      <point x="542.0" y="-366.0" type="curve" smooth="yes"/>
      <point x="542.0" y="-435.0"/>
      <point x="490.0" y="-484.0"/>
      <point x="404.0" y="-484.0" type="curve" smooth="yes"/>
      <point x="329.0" y="-484.0"/>
      <point x="314.0" y="-422.0"/>
      <point x="278.0" y="-422.0" type="curve" smooth="yes"/>
      <point x="250.0" y="-422.0"/>
      <point x="234.0" y="-443.0"/>
      <point x="234.0" y="-466.0" type="curve" smooth="yes"/>
      <point x="234.0" y="-502.0"/>
      <point x="262.0" y="-530.0"/>
    </contour>
  </outline>
</glyph>
<glyph name="divide" format="2">
  <advance width="1000.0"/>
  <unicode hex="00F7"/>
  <outline>
    <contour>
      <point x="500.0" y="198.0" type="curve" smooth="yes"/>
      <point x="455.0" y="198.0"/>
      <point x="421.0" y="162.0"/>
      <point x="421.0" y="118.0" type="curve" smooth="yes"/>
      <point x="421.0" y="74.0"/>
      <point x="455.0" y="38.0"/>
      <point x="500.0" y="38.0" type="curve" smooth="yes"/>
      <point x="545.0" y="38.0"/>
      <point x="579.0" y="74.0"/>
      <point x="579.0" y="118.0" type="curve" smooth="yes"/>
      <point x="579.0" y="162.0"/>
      <point x="545.0" y="198.0"/>
    </contour>
    <contour>
      <point x="500.0" y="822.0" type="curve" smooth="yes"/>
      <point x="455.0" y="822.0"/>
      <point x="421.0" y="786.0"/>
      <point x="421.0" y="742.0" type="curve" smooth="yes"/>
      <point x="421.0" y="698.0"/>
      <point x="455.0" y="662.0"/>
      <point x="500.0" y="662.0" type="curve" smooth="yes"/>
      <point x="545.0" y="662.0"/>
      <point x="579.0" y="698.0"/>
      <point x="579.0" y="742.0" type="curve" smooth="yes"/>
      <point x="579.0" y="786.0"/>
      <point x="545.0" y="822.0"/>
    </contour>
    <contour>
      <point x="143.0" y="456.0" type="line"/>
      <point x="143.0" y="412.0" type="line"/>
      <point x="857.0" y="412.0" type="line"/>
      <point x="857.0" y="456.0" type="line"/>
    </contour>
  </outline>
</glyph>
<glyph name="oslash" format="2">
  <advance width="1019.0"/>
  <unicode hex="00F8"/>
  <anchor x="509.0" y="852.0" name="top"/>
  <anchor x="509.0" y="0" name="bottom"/>
  <outline>
    <contour>
      <point x="95.0" y="0.0" type="line"/>
      <point x="166.0" y="0.0" type="line"/>
      <point x="243.0" y="87.0" type="line"/>
      <point x="262.0" y="112.0" type="line"/>
      <point x="790.0" y="703.0" type="line"/>
      <point x="811.0" y="725.0" type="line"/>
      <point x="924.0" y="852.0" type="line"/>
      <point x="853.0" y="852.0" type="line"/>
      <point x="776.0" y="765.0" type="line"/>
      <point x="757.0" y="740.0" type="line"/>
      <point x="229.0" y="149.0" type="line"/>
      <point x="208.0" y="127.0" type="line"/>
    </contour>
    <contour>
      <point x="514.0" y="16.0" type="curve" smooth="yes"/>
      <point x="313.0" y="16.0"/>
      <point x="177.0" y="184.0"/>
      <point x="177.0" y="440.0" type="curve" smooth="yes"/>
      <point x="177.0" y="706.0"/>
      <point x="322.0" y="836.0"/>
      <point x="505.0" y="836.0" type="curve" smooth="yes"/>
      <point x="706.0" y="836.0"/>
      <point x="842.0" y="668.0"/>
      <point x="842.0" y="412.0" type="curve" smooth="yes"/>
      <point x="842.0" y="146.0"/>
      <point x="697.0" y="16.0"/>
    </contour>
    <contour>
      <point x="509.0" y="-20.0" type="curve" smooth="yes"/>
      <point x="750.0" y="-20.0"/>
      <point x="924.0" y="155.0"/>
      <point x="924.0" y="435.0" type="curve" smooth="yes"/>
      <point x="924.0" y="702.0"/>
      <point x="747.0" y="872.0"/>
      <point x="510.0" y="872.0" type="curve" smooth="yes"/>
      <point x="269.0" y="872.0"/>
      <point x="95.0" y="697.0"/>
      <point x="95.0" y="417.0" type="curve" smooth="yes"/>
      <point x="95.0" y="150.0"/>
      <point x="272.0" y="-20.0"/>
    </contour>
  </outline>
</glyph>
<glyph name="aogonek" format="2">
  <advance width="839.0"/>
  <unicode hex="0105"/>
  <outline>
    <contour>
      <point x="855.0" y="54.0" type="line"/>
      <point x="855.0" y="75.0" type="line"/>
      <point x="813.0" y="44.0"/>
      <point x="783.0" y="36.0"/>
      <point x="750.0" y="36.0" type="curve" smooth="yes"/>
      <point x="693.0" y="36.0"/>
      <point x="658.0" y="66.0"/>
      <point x="658.0" y="149.0" type="curve" smooth="yes"/>
      <point x="658.0" y="647.0" type="line" smooth="yes"/>
      <point x="658.0" y="779.0"/>
      <point x="601.0" y="862.0"/>
      <point x="420.0" y="862.0" type="curve" smooth="yes"/>
      <point x="288.0" y="862.0"/>
      <point x="97.0" y="744.0"/>
      <point x="97.0" y="682.0" type="curve" smooth="yes"/>
      <point x="97.0" y="663.0"/>
      <point x="114.0" y="647.0"/>
      <point x="142.0" y="647.0" type="curve" smooth="yes"/>
      <point x="164.0" y="647.0"/>
      <point x="189.0" y="654.0"/>
      <point x="202.0" y="668.0" type="curve" smooth="yes"/>
      <point x="220.0" y="686.0"/>
      <point x="227.0" y="724.0"/>
      <point x="239.0" y="784.0" type="curve"/>
      <point x="179.0" y="754.0" type="line"/>
      <point x="275.0" y="796.0"/>
      <point x="340.0" y="812.0"/>
      <point x="393.0" y="812.0" type="curve" smooth="yes"/>
      <point x="536.0" y="812.0"/>
      <point x="588.0" y="742.0"/>
      <point x="588.0" y="625.0" type="curve" smooth="yes"/>
      <point x="588.0" y="259.0" type="line" smooth="yes"/>
      <point x="588.0" y="153.0"/>
      <point x="477.0" y="36.0"/>
      <point x="345.0" y="36.0" type="curve" smooth="yes"/>
      <point x="234.0" y="36.0"/>
      <point x="167.0" y="91.0"/>
      <point x="167.0" y="192.0" type="curve" smooth="yes"/>
      <point x="167.0" y="312.0"/>
      <point x="211.0" y="375.0"/>
      <point x="627.0" y="491.0" type="curve"/>
      <point x="627.0" y="524.0" type="line"/>
      <point x="153.0" y="400.0"/>
      <point x="92.0" y="311.0"/>
      <point x="92.0" y="183.0" type="curve" smooth="yes"/>
      <point x="92.0" y="47.0"/>
      <point x="188.0" y="-20.0"/>
      <point x="320.0" y="-20.0" type="curve" smooth="yes"/>
      <point x="445.0" y="-20.0"/>
      <point x="544.0" y="49.0"/>
      <point x="594.0" y="207.0" type="curve"/>
      <point x="588.0" y="207.0" type="line"/>
      <point x="581.0" y="24.0"/>
      <point x="612.0" y="-13.0"/>
      <point x="714.0" y="-13.0" type="curve" smooth="yes"/>
      <point x="747.0" y="-13.0"/>
      <point x="777.0" y="-5.0"/>
      <point x="808.0" y="15.0" type="curve"/>
      <point x="802.0" y="22.0" type="line"/>
      <point x="672.0" y="-140.0" type="line" smooth="yes"/>
      <point x="564.0" y="-274.0"/>
      <point x="544.0" y="-327.0"/>
      <point x="544.0" y="-392.0" type="curve" smooth="yes"/>
      <point x="544.0" y="-476.0"/>
      <point x="595.0" y="-530.0"/>
      <point x="686.0" y="-530.0" type="curve" smooth="yes"/>
      <point x="757.0" y="-530.0"/>
      <point x="803.0" y="-499.0"/>
      <point x="888.0" y="-408.0" type="curve"/>
      <point x="872.0" y="-389.0" type="line"/>
      <point x="816.0" y="-444.0"/>
      <point x="771.0" y="-474.0"/>
      <point x="717.0" y="-474.0" type="curve" smooth="yes"/>
      <point x="652.0" y="-474.0"/>
      <point x="612.0" y="-432.0"/>
      <point x="612.0" y="-366.0" type="curve" smooth="yes"/>
      <point x="612.0" y="-307.0"/>
      <point x="624.0" y="-257.0"/>
      <point x="721.0" y="-126.0" type="curve" smooth="yes"/>
    </contour>
  </outline>
</glyph>
<glyph name="eogonek" format="2">
  <advance width="864"/>
  <unicode hex="0119"/>
  <outline>
    <contour>
      <point x="796.0" y="132.0" type="line"/>
      <point x="780.0" y="153.0" type="line"/>
      <point x="679.0" y="67.0"/>
      <point x="605.0" y="42.0"/>
      <point x="512.0" y="42.0" type="curve" smooth="yes"/>
      <point x="290.0" y="42.0"/>
      <point x="152.0" y="194.0"/>
      <point x="152.0" y="442.0" type="curve" smooth="yes"/>
      <point x="152.0" y="694.0"/>
      <point x="265.0" y="831.0"/>
      <point x="444.0" y="831.0" type="curve" smooth="yes"/>
      <point x="601.0" y="831.0"/>
      <point x="692.0" y="726.0"/>
      <point x="704.0" y="541.0" type="curve"/>
      <point x="728.0" y="586.0" type="line"/>
      <point x="146.0" y="559.0" type="line"/>
      <point x="146.0" y="530.0" type="line"/>
      <point x="784.0" y="530.0" type="line"/>
      <point x="770.0" y="717.0"/>
      <point x="683.0" y="872.0"/>
      <point x="471.0" y="872.0" type="curve" smooth="yes"/>
      <point x="230.0" y="872.0"/>
      <point x="81.0" y="665.0"/>
      <point x="81.0" y="418.0" type="curve" smooth="yes"/>
      <point x="81.0" y="151.0"/>
      <point x="234.0" y="-20.0"/>
      <point x="469.0" y="-20.0" type="curve" smooth="yes"/>
      <point x="582.0" y="-20.0"/>
      <point x="656.0" y="16.0"/>
      <point x="755.0" y="97.0" type="curve"/>
      <point x="746.0" y="104.0" type="line"/>
      <point x="580.0" y="-132.0" type="line" smooth="yes"/>
      <point x="486.0" y="-266.0"/>
      <point x="468.0" y="-324.0"/>
      <point x="468.0" y="-379.0" type="curve" smooth="yes"/>
      <point x="468.0" y="-471.0"/>
      <point x="522.0" y="-530.0"/>
      <point x="617.0" y="-530.0" type="curve" smooth="yes"/>
      <point x="691.0" y="-530.0"/>
      <point x="742.0" y="-501.0"/>
      <point x="829.0" y="-408.0" type="curve"/>
      <point x="813.0" y="-389.0" type="line"/>
      <point x="755.0" y="-446.0"/>
      <point x="706.0" y="-474.0"/>
      <point x="648.0" y="-474.0" type="curve" smooth="yes"/>
      <point x="580.0" y="-474.0"/>
      <point x="538.0" y="-432.0"/>
      <point x="538.0" y="-362.0" type="curve" smooth="yes"/>
      <point x="538.0" y="-301.0"/>
      <point x="556.0" y="-246.0"/>
      <point x="635.0" y="-121.0" type="curve" smooth="yes"/>
    </contour>
  </outline>
</glyph>
<glyph name="Hbar" format="2">
  <advance width="1468"/>
  <unicode hex="0126"/>
  <outline>
    <contour>
      <point x="322.0" y="52.0" type="line"/>
      <point x="322.0" y="1288.0" type="line"/>
      <point x="494.0" y="1318.0" type="line"/>
      <point x="494.0" y="1340.0" type="line"/>
      <point x="74.0" y="1340.0" type="line"/>
      <point x="74.0" y="1318.0" type="line"/>
      <point x="246.0" y="1288.0" type="line"/>
      <point x="246.0" y="52.0" type="line"/>
      <point x="74.0" y="22.0" type="line"/>
      <point x="74.0" y="0.0" type="line"/>
      <point x="494.0" y="0.0" type="line"/>
      <point x="494.0" y="22.0" type="line"/>
    </contour>
    <contour>
      <point x="1222.0" y="52.0" type="line"/>
      <point x="1222.0" y="1288.0" type="line"/>
      <point x="1394.0" y="1318.0" type="line"/>
      <point x="1394.0" y="1340.0" type="line"/>
      <point x="974.0" y="1340.0" type="line"/>
      <point x="974.0" y="1318.0" type="line"/>
      <point x="1146.0" y="1288.0" type="line"/>
      <point x="1146.0" y="52.0" type="line"/>
      <point x="974.0" y="22.0" type="line"/>
      <point x="974.0" y="0.0" type="line"/>
      <point x="1394.0" y="0.0" type="line"/>
      <point x="1394.0" y="22.0" type="line"/>
    </contour>
    <contour>
      <point x="74.0" y="976.0" type="line"/>
      <point x="1394.0" y="976.0" type="line"/>
      <point x="1394.0" y="1029.0" type="line"/>
      <point x="74.0" y="1029.0" type="line"/>
    </contour>
    <contour>
      <point x="262.0" y="666.0" type="line"/>
      <point x="1205.0" y="666.0" type="line"/>
      <point x="1205.0" y="712.0" type="line"/>
      <point x="262.0" y="712.0" type="line"/>
    </contour>
  </outline>
</glyph>
<glyph name="iogonek" format="2">
  <advance width="469.0"/>
  <unicode hex="012F"/>
  <outline>
    <contour>
      <point x="231.0" y="1260.0" type="curve" smooth="yes"/>
      <point x="282.0" y="1260.0"/>
      <point x="312.0" y="1295.0"/>
      <point x="312.0" y="1341.0" type="curve" smooth="yes"/>
      <point x="312.0" y="1385.0"/>
      <point x="282.0" y="1419.0"/>
      <point x="231.0" y="1419.0" type="curve" smooth="yes"/>
      <point x="183.0" y="1419.0"/>
      <point x="150.0" y="1385.0"/>
      <point x="150.0" y="1341.0" type="curve" smooth="yes"/>
      <point x="150.0" y="1295.0"/>
      <point x="183.0" y="1260.0"/>
    </contour>
    <contour>
      <point x="288.0" y="872.0" type="line"/>
      <point x="280.0" y="872.0" type="line"/>
      <point x="48.0" y="819.0" type="line"/>
      <point x="48.0" y="798.0" type="line"/>
      <point x="109.0" y="785.8"/>
      <point x="186.0" y="770.4"/>
      <point x="208.0" y="766.0" type="curve"/>
      <point x="208.0" y="49.0" type="line"/>
      <point x="56.0" y="23.0" type="line"/>
      <point x="56.0" y="0.0" type="line"/>
      <point x="430.0" y="0.0" type="line"/>
      <point x="430.0" y="23.0" type="line"/>
      <point x="278.0" y="49.0" type="line"/>
      <point x="278.0" y="777.0" type="line"/>
    </contour>
    <contour>
      <point x="196.0" y="-129.0" type="curve" smooth="yes"/>
      <point x="260.0" y="0.0" type="line"/>
      <point x="225.0" y="0.0" type="line"/>
      <point x="145.0" y="-141.0" type="line" smooth="yes"/>
      <point x="67.0" y="-278.0"/>
      <point x="57.0" y="-331.0"/>
      <point x="57.0" y="-379.0" type="curve" smooth="yes"/>
      <point x="57.0" y="-471.0"/>
      <point x="111.0" y="-530.0"/>
      <point x="206.0" y="-530.0" type="curve" smooth="yes"/>
      <point x="280.0" y="-530.0"/>
      <point x="331.0" y="-501.0"/>
      <point x="418.0" y="-408.0" type="curve"/>
      <point x="402.0" y="-389.0" type="line"/>
      <point x="344.0" y="-446.0"/>
      <point x="295.0" y="-474.0"/>
      <point x="237.0" y="-474.0" type="curve" smooth="yes"/>
      <point x="169.0" y="-474.0"/>
      <point x="127.0" y="-432.0"/>
      <point x="127.0" y="-362.0" type="curve" smooth="yes"/>
      <point x="127.0" y="-301.0"/>
      <point x="132.0" y="-258.0"/>
    </contour>
  </outline>
</glyph>
<glyph name="kgreenlandic" format="2">
  <advance width="1021.0"/>
  <unicode hex="0138"/>
  <outline>
    <contour>
      <point x="415.0" y="432.0" type="line"/>
      <point x="803.0" y="45.0" type="line"/>
      <point x="657.0" y="22.0" type="line"/>
      <point x="657.0" y="0.0" type="line"/>
      <point x="1027.0" y="0.0" type="line"/>
      <point x="1027.0" y="22.0" type="line"/>
      <point x="890.0" y="49.0" type="line"/>
      <point x="454.0" y="486.0" type="line"/>
      <point x="454.0" y="460.0" type="line"/>
      <point x="809.0" y="803.0" type="line"/>
      <point x="962.0" y="830.0" type="line"/>
      <point x="962.0" y="852.0" type="line"/>
      <point x="602.0" y="852.0" type="line"/>
      <point x="602.0" y="830.0" type="line"/>
      <point x="754.0" y="803.0" type="line"/>
      <point x="415.0" y="472.0" type="line"/>
      <point x="249.0" y="472.0" type="line"/>
      <point x="249.0" y="432.0" type="line"/>
    </contour>
    <contour>
      <point x="284.0" y="872.0" type="line"/>
      <point x="276.0" y="872.0" type="line"/>
      <point x="44.0" y="819.0" type="line"/>
      <point x="44.0" y="798.0" type="line"/>
      <point x="105.0" y="785.8"/>
      <point x="182.0" y="770.4"/>
      <point x="204.0" y="766.0" type="curve"/>
      <point x="204.0" y="49.0" type="line"/>
      <point x="52.0" y="23.0" type="line"/>
      <point x="52.0" y="0.0" type="line"/>
      <point x="426.0" y="0.0" type="line"/>
      <point x="426.0" y="23.0" type="line"/>
      <point x="274.0" y="49.0" type="line"/>
      <point x="274.0" y="777.0" type="line"/>
    </contour>
  </outline>
</glyph>
<glyph name="lslash" format="2">
  <advance width="536"/>
  <unicode hex="0142"/>
  <outline>
    <contour>
      <point x="249.0" y="569.0" type="line"/>
      <point x="290.0" y="590.0" type="line"/>
      <point x="502.0" y="777.0" type="line"/>
      <point x="502.0" y="848.0" type="line"/>
      <point x="290.0" y="661.0" type="line"/>
      <point x="249.0" y="640.0" type="line"/>
      <point x="52.0" y="466.0" type="line"/>
      <point x="52.0" y="395.0" type="line"/>
    </contour>
    <contour>
      <point x="305.0" y="49.0" type="line"/>
      <point x="305.0" y="1307.0" type="line"/>
      <point x="305.0" y="1419.0" type="line"/>
      <point x="297.0" y="1419.0" type="line"/>
      <point x="67.0" y="1374.0" type="line"/>
      <point x="67.0" y="1360.0" type="line"/>
      <point x="145.0" y="1336.7857142857142"/>
      <point x="209.0" y="1317.7380952380952"/>
      <point x="235.0" y="1310.0" type="curve"/>
      <point x="235.0" y="49.0" type="line"/>
      <point x="83.0" y="23.0" type="line"/>
      <point x="83.0" y="0.0" type="line"/>
      <point x="457.0" y="0.0" type="line"/>
      <point x="457.0" y="23.0" type="line"/>
    </contour>
  </outline>
</glyph>
<glyph name="Eng" format="2">
  <advance width="1467.0"/>
  <unicode hex="014A"/>
  <guideline x="735.0" y="376" angle="18.43494882292201" identifier="h3XiUWFOzP"/>
  <outline>
    <contour>
      <point x="1200.0" y="112.0" type="line"/>
      <point x="324.0" y="1340.0" type="line"/>
      <point x="62.0" y="1340.0" type="line"/>
      <point x="62.0" y="1318.0" type="line"/>
      <point x="248.0" y="1281.0" type="line"/>
      <point x="248.0" y="52.0" type="line"/>
      <point x="76.0" y="22.0" type="line"/>
      <point x="76.0" y="0.0" type="line"/>
      <point x="468.0" y="0.0" type="line"/>
      <point x="468.0" y="22.0" type="line"/>
      <point x="296.0" y="52.0" type="line"/>
      <point x="296.0" y="1300.0" type="line"/>
      <point x="267.0" y="1286.0" type="line"/>
      <point x="1200.0" y="-16.0" type="line"/>
    </contour>
    <contour>
      <point x="1234.0" y="-15.0" type="curve" smooth="yes"/>
      <point x="1234.0" y="1288.0" type="line"/>
      <point x="1406.0" y="1318.0" type="line"/>
      <point x="1406.0" y="1340.0" type="line"/>
      <point x="1014.0" y="1340.0" type="line"/>
      <point x="1014.0" y="1318.0" type="line"/>
      <point x="1186.0" y="1288.0" type="line"/>
      <point x="1186.0" y="-55.0" type="line" smooth="yes"/>
      <point x="1186.0" y="-357.0"/>
      <point x="1055.0" y="-468.0"/>
      <point x="918.0" y="-468.0" type="curve" smooth="yes"/>
      <point x="850.0" y="-468.0"/>
      <point x="826.0" y="-415.0"/>
      <point x="786.0" y="-415.0" type="curve" smooth="yes"/>
      <point x="757.0" y="-415.0"/>
      <point x="732.0" y="-435.0"/>
      <point x="732.0" y="-472.0" type="curve" smooth="yes"/>
      <point x="732.0" y="-503.0"/>
      <point x="762.0" y="-530.0"/>
      <point x="839.0" y="-530.0" type="curve" smooth="yes"/>
      <point x="1081.0" y="-530.0"/>
      <point x="1234.0" y="-357.0"/>
    </contour>
  </outline>
</glyph>
<glyph name="uni0162" format="2">
  <advance width="1224.0"/>
  <unicode hex="0162"/>
  <outline>
    <contour>
      <point x="574.0" y="1327.0" type="line"/>
      <point x="574.0" y="52.0" type="line"/>
      <point x="402.0" y="22.0" type="line"/>
      <point x="402.0" y="0.0" type="line"/>
      <point x="822.0" y="0.0" type="line"/>
      <point x="822.0" y="22.0" type="line"/>
      <point x="650.0" y="52.0" type="line"/>
      <point x="650.0" y="1327.0" type="line"/>
    </contour>
    <contour>
      <point x="1099.0" y="1294.0" type="line"/>
      <point x="1047.0" y="1308.0" type="line"/>
      <point x="1155.0" y="981.0" type="line"/>
      <point x="1179.0" y="986.0" type="line"/>
      <point x="1133.0" y="1404.0" type="line"/>
      <point x="1122.0" y="1404.0" type="line"/>
      <point x="1040.0" y="1330.0" type="line"/>
      <point x="1075.0" y="1340.0" type="line"/>
      <point x="149.0" y="1340.0" type="line"/>
      <point x="184.0" y="1330.0" type="line"/>
      <point x="102.0" y="1404.0" type="line"/>
      <point x="91.0" y="1404.0" type="line"/>
      <point x="45.0" y="985.0" type="line"/>
      <point x="69.0" y="981.0" type="line"/>
      <point x="177.0" y="1308.0" type="line"/>
      <point x="125.0" y="1294.0" type="line"/>
    </contour>
    <contour>
      <point x="508.0" y="-530.0" type="curve" smooth="yes"/>
      <point x="649.0" y="-530.0"/>
      <point x="744.0" y="-439.0"/>
      <point x="744.0" y="-332.0" type="curve" smooth="yes"/>
      <point x="744.0" y="-262.0"/>
      <point x="689.0" y="-195.0"/>
      <point x="505.0" y="-146.0" type="curve"/>
      <point x="517.0" y="-168.0" type="line"/>
      <point x="640.0" y="0.0" type="line"/>
      <point x="595.0" y="0.0" type="line"/>
      <point x="449.0" y="-206.0" type="line"/>
      <point x="449.0" y="-210.0" type="line"/>
      <point x="630.0" y="-254.0"/>
      <point x="679.0" y="-302.0"/>
      <point x="679.0" y="-366.0" type="curve" smooth="yes"/>
      <point x="679.0" y="-435.0"/>
      <point x="627.0" y="-484.0"/>
      <point x="541.0" y="-484.0" type="curve" smooth="yes"/>
      <point x="466.0" y="-484.0"/>
      <point x="451.0" y="-422.0"/>
      <point x="415.0" y="-422.0" type="curve" smooth="yes"/>
      <point x="387.0" y="-422.0"/>
      <point x="371.0" y="-443.0"/>
      <point x="371.0" y="-466.0" type="curve" smooth="yes"/>
      <point x="371.0" y="-502.0"/>
      <point x="399.0" y="-530.0"/>
    </contour>
  </outline>
</glyph>
<glyph name="Tbar" format="2">
  <advance width="1228.0"/>
  <unicode hex="0166"/>
  <outline>
    <contour>
      <point x="289.0" y="670.0" type="line"/>
      <point x="939.0" y="670.0" type="line"/>
      <point x="939.0" y="723.0" type="line"/>
      <point x="289.0" y="723.0" type="line"/>
    </contour>
    <contour>
      <point x="576.0" y="1327.0" type="line"/>
      <point x="576.0" y="52.0" type="line"/>
      <point x="404.0" y="22.0" type="line"/>
      <point x="404.0" y="0.0" type="line"/>
      <point x="824.0" y="0.0" type="line"/>
      <point x="824.0" y="22.0" type="line"/>
      <point x="652.0" y="52.0" type="line"/>
      <point x="652.0" y="1327.0" type="line"/>
    </contour>
    <contour>
      <point x="1101.0" y="1294.0" type="line"/>
      <point x="1049.0" y="1308.0" type="line"/>
      <point x="1157.0" y="981.0" type="line"/>
      <point x="1181.0" y="986.0" type="line"/>
      <point x="1135.0" y="1404.0" type="line"/>
      <point x="1124.0" y="1404.0" type="line"/>
      <point x="1042.0" y="1330.0" type="line"/>
      <point x="1077.0" y="1340.0" type="line"/>
      <point x="151.0" y="1340.0" type="line"/>
      <point x="186.0" y="1330.0" type="line"/>
      <point x="104.0" y="1404.0" type="line"/>
      <point x="93.0" y="1404.0" type="line"/>
      <point x="47.0" y="985.0" type="line"/>
      <point x="71.0" y="981.0" type="line"/>
      <point x="179.0" y="1308.0" type="line"/>
      <point x="127.0" y="1294.0" type="line"/>
    </contour>
  </outline>
</glyph>
<glyph name="uni018F" format="2">
  <advance width="1359.0"/>
  <unicode hex="018F"/>
  <outline>
    <contour>
      <point x="136.0" y="483.0" type="line"/>
      <point x="1213.0" y="483.0" type="line"/>
      <point x="1213.0" y="529.0" type="line"/>
      <point x="105.0" y="529.0" type="line"/>
      <point x="132.0" y="174.0"/>
      <point x="296.0" y="-20.0"/>
      <point x="634.0" y="-20.0" type="curve" smooth="yes"/>
      <point x="963.0" y="-20.0"/>
      <point x="1256.0" y="207.0"/>
      <point x="1256.0" y="681.0" type="curve" smooth="yes"/>
      <point x="1256.0" y="1096.0"/>
      <point x="1021.0" y="1360.0"/>
      <point x="616.0" y="1360.0" type="curve" smooth="yes"/>
      <point x="411.0" y="1360.0"/>
      <point x="286.0" y="1310.0"/>
      <point x="89.0" y="1156.0" type="curve"/>
      <point x="110.0" y="1125.0" type="line"/>
      <point x="294.0" y="1259.0"/>
      <point x="401.0" y="1300.0"/>
      <point x="614.0" y="1300.0" type="curve" smooth="yes"/>
      <point x="945.0" y="1300.0"/>
      <point x="1179.0" y="1054.0"/>
      <point x="1179.0" y="661.0" type="curve" smooth="yes"/>
      <point x="1179.0" y="218.9310344827586"/>
      <point x="924.0" y="20.0"/>
      <point x="634.0" y="20.0" type="curve" smooth="yes"/>
      <point x="356.75501113585744" y="20.0"/>
      <point x="209.99907280764072" y="204.01503027614035"/>
      <point x="191.0" y="512.0" type="curve"/>
    </contour>
  </outline>
</glyph>
<glyph name="ohorn" format="2">
  <advance width="991.0"/>
  <unicode hex="01A1"/>
  <anchor x="494" y="852.0" name="top"/>
  <anchor x="494" y="0" name="bottom"/>
  <outline>
    <contour>
      <point x="499.0" y="16.0" type="curve" smooth="yes"/>
      <point x="298.0" y="16.0"/>
      <point x="162.0" y="184.0"/>
      <point x="162.0" y="440.0" type="curve" smooth="yes"/>
      <point x="162.0" y="706.0"/>
      <point x="307.0" y="836.0"/>
      <point x="490.0" y="836.0" type="curve" smooth="yes"/>
      <point x="691.0" y="836.0"/>
      <point x="827.0" y="668.0"/>
      <point x="827.0" y="412.0" type="curve" smooth="yes"/>
      <point x="827.0" y="146.0"/>
      <point x="682.0" y="16.0"/>
    </contour>
    <contour>
      <point x="908.0" y="987.0" type="curve" smooth="yes"/>
      <point x="908.0" y="1059.0"/>
      <point x="876.0" y="1086.0"/>
      <point x="835.0" y="1086.0" type="curve" smooth="yes"/>
      <point x="794.0" y="1086.0"/>
      <point x="771.0" y="1053.0"/>
      <point x="771.0" y="1031.0" type="curve" smooth="yes"/>
      <point x="771.0" y="1025.0"/>
      <point x="828.0" y="989.0"/>
      <point x="828.0" y="941.0" type="curve" smooth="yes"/>
      <point x="828.0" y="889.0"/>
      <point x="794.0" y="852.0"/>
      <point x="704.0" y="852.0" type="curve" smooth="yes"/>
      <point x="625.0" y="852.0"/>
      <point x="572.0" y="872.0"/>
      <point x="495.0" y="872.0" type="curve" smooth="yes"/>
      <point x="254.0" y="872.0"/>
      <point x="80.0" y="697.0"/>
      <point x="80.0" y="417.0" type="curve" smooth="yes"/>
      <point x="80.0" y="150.0"/>
      <point x="257.0" y="-20.0"/>
      <point x="494.0" y="-20.0" type="curve" smooth="yes"/>
      <point x="735.0" y="-20.0"/>
      <point x="909.0" y="155.0"/>
      <point x="909.0" y="435.0" type="curve" smooth="yes"/>
      <point x="909.0" y="602.0"/>
      <point x="838.0" y="754.0"/>
      <point x="677.0" y="833.0" type="curve"/>
      <point x="677.0" y="824.0" type="line"/>
      <point x="847.0" y="810.0"/>
      <point x="908.0" y="883.0"/>
    </contour>
  </outline>
</glyph>
<glyph name="Uhorn" format="2">
  <advance width="1412.0"/>
  <unicode hex="01AF"/>
  <anchor x="750.0" y="1340" name="UCtop"/>
  <anchor x="730.0" y="0" name="bottom"/>
  <outline>
    <contour>
      <point x="1419.0" y="1429.0" type="curve" smooth="yes"/>
      <point x="1419.0" y="1370.0"/>
      <point x="1377.0" y="1340.0"/>
      <point x="1266.0" y="1340.0" type="curve" smooth="yes"/>
      <point x="1000.0" y="1340.0" type="line"/>
      <point x="1000.0" y="1318.0" type="line"/>
      <point x="1172.0" y="1288.0" type="line"/>
      <point x="1172.0" y="521.0" type="line" smooth="yes"/>
      <point x="1172.0" y="193.0"/>
      <point x="1021.0" y="36.0"/>
      <point x="736.0" y="36.0" type="curve" smooth="yes"/>
      <point x="439.0" y="36.0"/>
      <point x="293.0" y="223.0"/>
      <point x="293.0" y="552.0" type="curve" smooth="yes"/>
      <point x="293.0" y="1288.0" type="line"/>
      <point x="465.0" y="1318.0" type="line"/>
      <point x="465.0" y="1340.0" type="line"/>
      <point x="45.0" y="1340.0" type="line"/>
      <point x="45.0" y="1318.0" type="line"/>
      <point x="217.0" y="1288.0" type="line"/>
      <point x="217.0" y="542.0" type="line" smooth="yes"/>
      <point x="217.0" y="161.0"/>
      <point x="399.0" y="-20.0"/>
      <point x="723.0" y="-20.0" type="curve" smooth="yes"/>
      <point x="1032.0" y="-20.0"/>
      <point x="1220.0" y="146.0"/>
      <point x="1220.0" y="514.0" type="curve" smooth="yes"/>
      <point x="1220.0" y="1290.0" type="line"/>
      <point x="1445.0" y="1300.0"/>
      <point x="1499.0" y="1382.0"/>
      <point x="1499.0" y="1475.0" type="curve" smooth="yes"/>
      <point x="1499.0" y="1547.0"/>
      <point x="1467.0" y="1574.0"/>
      <point x="1426.0" y="1574.0" type="curve" smooth="yes"/>
      <point x="1385.0" y="1574.0"/>
      <point x="1362.0" y="1541.0"/>
      <point x="1362.0" y="1519.0" type="curve" smooth="yes"/>
      <point x="1362.0" y="1513.0"/>
      <point x="1419.0" y="1477.0"/>
    </contour>
  </outline>
</glyph>
<glyph name="uhorn" format="2">
  <advance width="1021"/>
  <unicode hex="01B0"/>
  <anchor x="461.0" y="852.0" name="top"/>
  <anchor x="499.0" y="0" name="bottom"/>
  <outline>
    <contour>
      <point x="251.0" y="293.0" type="curve" smooth="yes"/>
      <point x="251.0" y="787.0" type="line"/>
      <point x="261.0" y="869.0" type="line"/>
      <point x="-9.0" y="852.0" type="line"/>
      <point x="-9.0" y="829.0" type="line"/>
      <point x="181.0" y="787.0" type="line"/>
      <point x="181.0" y="253.0" type="line" smooth="yes"/>
      <point x="181.0" y="61.0"/>
      <point x="252.0" y="-20.0"/>
      <point x="441.0" y="-20.0" type="curve" smooth="yes"/>
      <point x="534.0" y="-20.0"/>
      <point x="612.0" y="1.0"/>
      <point x="783.0" y="154.0" type="curve"/>
      <point x="763.0" y="164.0" type="line"/>
      <point x="652.0" y="73.0"/>
      <point x="550.0" y="49.0"/>
      <point x="483.0" y="49.0" type="curve" smooth="yes"/>
      <point x="304.0" y="49.0"/>
      <point x="251.0" y="102.0"/>
    </contour>
    <contour>
      <point x="970.0" y="941.0" type="curve" smooth="yes"/>
      <point x="970.0" y="897.0"/>
      <point x="936.0" y="868.0"/>
      <point x="818.0" y="863.0" type="curve" smooth="yes"/>
      <point x="566.0" y="852.0" type="line"/>
      <point x="566.0" y="829.0" type="line"/>
      <point x="756.0" y="787.0" type="line"/>
      <point x="756.0" y="147.0" type="line"/>
      <point x="756.0" y="-20.0" type="line"/>
      <point x="765.0" y="-20.0" type="line"/>
      <point x="1008.0" y="46.0" type="line"/>
      <point x="1008.0" y="64.0" type="line"/>
      <point x="966.0" y="69.3076923076923"/>
      <point x="850.0" y="83.96703296703296"/>
      <point x="826.0" y="87.0" type="curve"/>
      <point x="826.0" y="787.0" type="line"/>
      <point x="832.0" y="829.0" type="line"/>
      <point x="992.0" y="839.0"/>
      <point x="1050.0" y="894.0"/>
      <point x="1050.0" y="987.0" type="curve" smooth="yes"/>
      <point x="1050.0" y="1059.0"/>
      <point x="1018.0" y="1086.0"/>
      <point x="977.0" y="1086.0" type="curve" smooth="yes"/>
      <point x="936.0" y="1086.0"/>
      <point x="913.0" y="1053.0"/>
      <point x="913.0" y="1031.0" type="curve" smooth="yes"/>
      <point x="913.0" y="1025.0"/>
      <point x="970.0" y="989.0"/>
    </contour>
  </outline>
</glyph>
<glyph name="uni01EA" format="2">
  <advance width="1482"/>
  <unicode hex="01EA"/>
  <outline>
    <contour>
      <point x="730.0" y="1360.0" type="curve" smooth="yes"/>
      <point x="366.0" y="1360.0"/>
      <point x="100.0" y="1069.0"/>
      <point x="100.0" y="669.0" type="curve" smooth="yes"/>
      <point x="100.0" y="271.0"/>
      <point x="380.0" y="-20.0"/>
      <point x="752.0" y="-20.0" type="curve" smooth="yes"/>
      <point x="1116.0" y="-20.0"/>
      <point x="1382.0" y="271.0"/>
      <point x="1382.0" y="671.0" type="curve" smooth="yes"/>
      <point x="1382.0" y="1069.0"/>
      <point x="1102.0" y="1360.0"/>
    </contour>
    <contour>
      <point x="749.0" y="23.0" type="curve" smooth="yes"/>
      <point x="419.0" y="23.0"/>
      <point x="182.0" y="273.0"/>
      <point x="182.0" y="681.0" type="curve" smooth="yes"/>
      <point x="182.0" y="1050.0"/>
      <point x="384.0" y="1317.0"/>
      <point x="733.0" y="1317.0" type="curve" smooth="yes"/>
      <point x="1063.0" y="1317.0"/>
      <point x="1300.0" y="1067.0"/>
      <point x="1300.0" y="659.0" type="curve" smooth="yes"/>
      <point x="1300.0" y="290.0"/>
      <point x="1098.0" y="23.0"/>
    </contour>
    <contour>
      <point x="717.0" y="-131.0" type="curve" smooth="yes"/>
      <point x="780.0" y="0.0" type="line"/>
      <point x="745.0" y="0.0" type="line"/>
      <point x="666.0" y="-143.0" type="line" smooth="yes"/>
      <point x="591.0" y="-280.0"/>
      <point x="583.0" y="-331.0"/>
      <point x="583.0" y="-379.0" type="curve" smooth="yes"/>
      <point x="583.0" y="-471.0"/>
      <point x="637.0" y="-530.0"/>
      <point x="732.0" y="-530.0" type="curve" smooth="yes"/>
      <point x="806.0" y="-530.0"/>
      <point x="857.0" y="-501.0"/>
      <point x="944.0" y="-408.0" type="curve"/>
      <point x="928.0" y="-389.0" type="line"/>
      <point x="870.0" y="-446.0"/>
      <point x="821.0" y="-474.0"/>
      <point x="763.0" y="-474.0" type="curve" smooth="yes"/>
      <point x="695.0" y="-474.0"/>
      <point x="653.0" y="-432.0"/>
      <point x="653.0" y="-362.0" type="curve" smooth="yes"/>
      <point x="653.0" y="-301.0"/>
      <point x="656.0" y="-261.0"/>
    </contour>
  </outline>
</glyph>
<glyph name="uni01EB" format="2">
  <advance width="989.0"/>
  <unicode hex="01EB"/>
  <outline>
    <contour>
      <point x="499.0" y="16.0" type="curve" smooth="yes"/>
      <point x="298.0" y="16.0"/>
      <point x="162.0" y="184.0"/>
      <point x="162.0" y="440.0" type="curve" smooth="yes"/>
      <point x="162.0" y="706.0"/>
      <point x="307.0" y="836.0"/>
      <point x="490.0" y="836.0" type="curve" smooth="yes"/>
      <point x="691.0" y="836.0"/>
      <point x="827.0" y="668.0"/>
      <point x="827.0" y="412.0" type="curve" smooth="yes"/>
      <point x="827.0" y="146.0"/>
      <point x="682.0" y="16.0"/>
    </contour>
    <contour>
      <point x="494.0" y="-20.0" type="curve" smooth="yes"/>
      <point x="735.0" y="-20.0"/>
      <point x="909.0" y="155.0"/>
      <point x="909.0" y="435.0" type="curve" smooth="yes"/>
      <point x="909.0" y="702.0"/>
      <point x="732.0" y="872.0"/>
      <point x="495.0" y="872.0" type="curve" smooth="yes"/>
      <point x="254.0" y="872.0"/>
      <point x="80.0" y="697.0"/>
      <point x="80.0" y="417.0" type="curve" smooth="yes"/>
      <point x="80.0" y="150.0"/>
      <point x="257.0" y="-20.0"/>
    </contour>
    <contour>
      <point x="489.0" y="-131.0" type="curve" smooth="yes"/>
      <point x="553.0" y="0.0" type="line"/>
      <point x="518.0" y="0.0" type="line"/>
      <point x="437.0" y="-143.0" type="line" smooth="yes"/>
      <point x="360.0" y="-280.0"/>
      <point x="351.0" y="-331.0"/>
      <point x="351.0" y="-379.0" type="curve" smooth="yes"/>
      <point x="351.0" y="-471.0"/>
      <point x="405.0" y="-530.0"/>
      <point x="500.0" y="-530.0" type="curve" smooth="yes"/>
      <point x="574.0" y="-530.0"/>
      <point x="625.0" y="-501.0"/>
      <point x="712.0" y="-408.0" type="curve"/>
      <point x="696.0" y="-389.0" type="line"/>
      <point x="638.0" y="-446.0"/>
      <point x="589.0" y="-474.0"/>
      <point x="531.0" y="-474.0" type="curve" smooth="yes"/>
      <point x="463.0" y="-474.0"/>
      <point x="421.0" y="-432.0"/>
      <point x="421.0" y="-362.0" type="curve" smooth="yes"/>
      <point x="421.0" y="-301.0"/>
      <point x="425.0" y="-261.0"/>
    </contour>
  </outline>
</glyph>
<glyph name="uni0259" format="2">
  <advance width="865.0"/>
  <unicode hex="0259"/>
  <outline>
    <contour>
      <point x="394.0" y="-20.0" type="curve" smooth="yes"/>
      <point x="635.0" y="-20.0"/>
      <point x="784.0" y="187.0"/>
      <point x="784.0" y="434.0" type="curve" smooth="yes"/>
      <point x="784.0" y="701.0"/>
      <point x="631.0" y="872.0"/>
      <point x="396.0" y="872.0" type="curve" smooth="yes"/>
      <point x="268.0" y="872.0"/>
      <point x="190.0" y="826.0"/>
      <point x="69.0" y="720.0" type="curve"/>
      <point x="85.0" y="699.0" type="line"/>
      <point x="186.0" y="781.0"/>
      <point x="259.0" y="806.0"/>
      <point x="344.0" y="806.0" type="curve" smooth="yes"/>
      <point x="572.0" y="806.0"/>
      <point x="709.0" y="655.0"/>
      <point x="709.0" y="414.0" type="curve" smooth="yes"/>
      <point x="709.0" y="157.0"/>
      <point x="597.0" y="25.0"/>
      <point x="406.0" y="25.0" type="curve" smooth="yes"/>
      <point x="263.0" y="25.0"/>
      <point x="179.0" y="126.0"/>
      <point x="167.0" y="311.0" type="curve"/>
      <point x="137.0" y="266.0" type="line"/>
      <point x="719.0" y="293.0" type="line"/>
      <point x="719.0" y="322.0" type="line"/>
      <point x="81.0" y="322.0" type="line"/>
      <point x="95.0" y="135.0"/>
      <point x="182.0" y="-20.0"/>
    </contour>
  </outline>
</glyph>
<glyph name="gravecomb" format="2">
  <unicode hex="0300"/>
  <anchor x="0.0" y="852.0" name="_top"/>
  <anchor x="0" y="1340" name="top"/>
  <outline>
    <contour>
      <point x="35.0" y="1009.0" type="line"/>
      <point x="-165.0" y="1340.0" type="line"/>
      <point x="-260.0" y="1340.0" type="line"/>
      <point x="-260.0" y="1326.0" type="line"/>
      <point x="1.0" y="1009.0" type="line"/>
    </contour>
  </outline>
</glyph>
<glyph name="acutecomb" format="2">
  <unicode hex="0301"/>
  <anchor x="0" y="852.0" name="_top"/>
  <anchor x="0" y="1340" name="top"/>
  <outline>
    <contour>
      <point x="-35.0" y="1009.0" type="line"/>
      <point x="-1.0" y="1009.0" type="line"/>
      <point x="260.0" y="1326.0" type="line"/>
      <point x="260.0" y="1340.0" type="line"/>
      <point x="165.0" y="1340.0" type="line"/>
    </contour>
  </outline>
</glyph>
<glyph name="tildecomb" format="2">
  <unicode hex="0303"/>
  <anchor x="2" y="852.0" name="_top"/>
  <anchor x="2" y="1255" name="top"/>
  <outline>
    <contour>
      <point x="250.0" y="1316.0" type="curve"/>
      <point x="217.0" y="1316.0" type="line"/>
      <point x="184.0" y="1149.0"/>
      <point x="159.0" y="1100.0"/>
      <point x="115.0" y="1100.0" type="curve" smooth="yes"/>
      <point x="43.0" y="1100.0"/>
      <point x="-12.0" y="1326.0"/>
      <point x="-101.0" y="1326.0" type="curve" smooth="yes"/>
      <point x="-160.0" y="1326.0"/>
      <point x="-211.0" y="1286.0"/>
      <point x="-250.0" y="1033.0" type="curve"/>
      <point x="-217.0" y="1033.0" type="line"/>
      <point x="-184.0" y="1200.0"/>
      <point x="-160.0" y="1249.0"/>
      <point x="-115.0" y="1249.0" type="curve" smooth="yes"/>
      <point x="-44.0" y="1249.0"/>
      <point x="11.0" y="1023.0"/>
      <point x="105.0" y="1023.0" type="curve" smooth="yes"/>
      <point x="160.0" y="1023.0"/>
      <point x="211.0" y="1063.0"/>
    </contour>
  </outline>
</glyph>
<glyph name="uni031B" format="2">
  <unicode hex="031B"/>
  <anchor x="0" y="852.0" name="_horn"/>
  <outline>
    <contour>
      <point x="260.0" y="987.0" type="curve" smooth="yes"/>
      <point x="260.0" y="1059.0"/>
      <point x="228.0" y="1086.0"/>
      <point x="187.0" y="1086.0" type="curve" smooth="yes"/>
      <point x="146.0" y="1086.0"/>
      <point x="123.0" y="1053.0"/>
      <point x="123.0" y="1031.0" type="curve" smooth="yes"/>
      <point x="123.0" y="1025.0"/>
      <point x="180.0" y="989.0"/>
      <point x="180.0" y="941.0" type="curve" smooth="yes"/>
      <point x="180.0" y="890.0"/>
      <point x="144.0" y="852.0"/>
      <point x="27.0" y="852.0" type="curve" smooth="yes"/>
      <point x="-46.0" y="852.0" type="line"/>
      <point x="-46.0" y="820.0" type="line"/>
      <point x="26.0" y="820.0" type="line" smooth="yes"/>
      <point x="179.0" y="820.0"/>
      <point x="260.0" y="881.0"/>
    </contour>
  </outline>
</glyph>
<glyph name="dotbelowcomb" format="2">
  <unicode hex="0323"/>
  <anchor x="0" y="0" name="_bottom"/>
  <anchor x="0" y="-530.0" name="bottom"/>
  <outline>
    <contour>
      <point x="0.0" y="-335.0" type="curve" smooth="yes"/>
      <point x="49.0" y="-335.0"/>
      <point x="79.0" y="-296.0"/>
      <point x="79.0" y="-255.0" type="curve" smooth="yes"/>
      <point x="79.0" y="-213.0"/>
      <point x="49.0" y="-174.0"/>
      <point x="0.0" y="-174.0" type="curve" smooth="yes"/>
      <point x="-49.0" y="-174.0"/>
      <point x="-79.0" y="-213.0"/>
      <point x="-79.0" y="-255.0" type="curve" smooth="yes"/>
      <point x="-79.0" y="-296.0"/>
      <point x="-49.0" y="-335.0"/>
    </contour>
  </outline>
</glyph>
<glyph name="uni0326" format="2">
  <unicode hex="0326"/>
  <anchor x="0" y="0" name="_bottom"/>
  <anchor x="0" y="-530" name="bottom"/>
  <outline>
    <contour>
      <point x="-143.0" y="-496.0" type="curve"/>
      <point x="-143.0" y="-530.0" type="line"/>
      <point x="6.0" y="-467.0"/>
      <point x="86.0" y="-357.0"/>
      <point x="86.0" y="-249.0" type="curve" smooth="yes"/>
      <point x="86.0" y="-155.0"/>
      <point x="39.0" y="-108.0"/>
      <point x="-20.0" y="-108.0" type="curve" smooth="yes"/>
      <point x="-73.0" y="-108.0"/>
      <point x="-100.0" y="-140.0"/>
      <point x="-100.0" y="-183.0" type="curve" smooth="yes"/>
      <point x="-100.0" y="-207.0"/>
      <point x="27.0" y="-202.0"/>
      <point x="27.0" y="-298.0" type="curve" smooth="yes"/>
      <point x="27.0" y="-359.0"/>
      <point x="-27.0" y="-446.0"/>
    </contour>
  </outline>
</glyph>
<glyph name="uni0327" format="2">
  <unicode hex="0327"/>
  <anchor x="0" y="0" name="_bottom"/>
  <anchor x="34" y="-530" name="bottom"/>
  <outline>
    <contour>
      <point x="-104.0" y="-530.0" type="curve" smooth="yes"/>
      <point x="37.0" y="-530.0"/>
      <point x="132.0" y="-439.0"/>
      <point x="132.0" y="-332.0" type="curve" smooth="yes"/>
      <point x="132.0" y="-262.0"/>
      <point x="77.0" y="-195.0"/>
      <point x="-107.0" y="-146.0" type="curve"/>
      <point x="-95.0" y="-168.0" type="line"/>
      <point x="28.0" y="0.0" type="line"/>
      <point x="-17.0" y="0.0" type="line"/>
      <point x="-163.0" y="-206.0" type="line"/>
      <point x="-163.0" y="-210.0" type="line"/>
      <point x="18.0" y="-254.0"/>
      <point x="67.0" y="-302.0"/>
      <point x="67.0" y="-366.0" type="curve" smooth="yes"/>
      <point x="67.0" y="-435.0"/>
      <point x="15.0" y="-484.0"/>
      <point x="-71.0" y="-484.0" type="curve" smooth="yes"/>
      <point x="-146.0" y="-484.0"/>
      <point x="-161.0" y="-422.0"/>
      <point x="-197.0" y="-422.0" type="curve" smooth="yes"/>
      <point x="-225.0" y="-422.0"/>
      <point x="-241.0" y="-443.0"/>
      <point x="-241.0" y="-466.0" type="curve" smooth="yes"/>
      <point x="-241.0" y="-502.0"/>
      <point x="-213.0" y="-530.0"/>
    </contour>
  </outline>
</glyph>
<glyph name="daggerdbl" format="2">
  <advance width="739"/>
  <unicode hex="2021"/>
  <outline>
    <contour>
      <point x="370.0" y="1166.0" type="line"/>
      <point x="120.0" y="1189.0" type="line"/>
      <point x="120.0" y="1109.0" type="line"/>
      <point x="370.0" y="1132.0" type="line"/>
      <point x="620.0" y="1109.0" type="line"/>
      <point x="620.0" y="1189.0" type="line"/>
    </contour>
    <contour>
      <point x="407.0" y="1025.0" type="line"/>
      <point x="387.0" y="1149.0" type="line"/>
      <point x="410.0" y="1399.0" type="line"/>
      <point x="330.0" y="1399.0" type="line"/>
      <point x="353.0" y="1149.0" type="line"/>
      <point x="332.0" y="1025.0" type="line"/>
      <point x="353.0" y="901.0" type="line"/>
      <point x="330.0" y="651.0" type="line"/>
      <point x="410.0" y="651.0" type="line"/>
      <point x="387.0" y="901.0" type="line"/>
    </contour>
    <contour>
      <point x="370.0" y="884.0" type="line"/>
      <point x="620.0" y="861.0" type="line"/>
      <point x="620.0" y="941.0" type="line"/>
      <point x="370.0" y="918.0" type="line"/>
      <point x="120.0" y="941.0" type="line"/>
      <point x="120.0" y="861.0" type="line"/>
    </contour>
  </outline>
</glyph>
<glyph name="guilsinglleft" format="2">
  <advance width="531.0"/>
  <unicode hex="2039"/>
  <outline>
    <contour>
      <point x="141.0" y="474.0" type="line"/>
      <point x="141.0" y="398.0" type="line"/>
      <point x="448.0" y="785.0" type="line"/>
      <point x="421.0" y="806.0" type="line"/>
      <point x="73.0" y="451.0" type="line"/>
      <point x="73.0" y="421.0" type="line"/>
      <point x="421.0" y="66.0" type="line"/>
      <point x="448.0" y="87.0" type="line"/>
    </contour>
  </outline>
</glyph>
<glyph name="zerosuperior" format="2">
  <advance width="698.0"/>
  <unicode hex="2070"/>
  <outline>
    <contour>
      <point x="351.0" y="613.0" type="curve" smooth="yes"/>
      <point x="226.0" y="613.0"/>
      <point x="153.0" y="749.0"/>
      <point x="153.0" y="983.0" type="curve" smooth="yes"/>
      <point x="153.0" y="1195.0"/>
      <point x="224.0" y="1320.0"/>
      <point x="347.0" y="1320.0" type="curve" smooth="yes"/>
      <point x="472.0" y="1320.0"/>
      <point x="545.0" y="1184.0"/>
      <point x="545.0" y="950.0" type="curve" smooth="yes"/>
      <point x="545.0" y="738.0"/>
      <point x="474.0" y="613.0"/>
    </contour>
    <contour>
      <point x="349.0" y="583.0" type="curve" smooth="yes"/>
      <point x="513.0" y="583.0"/>
      <point x="624.0" y="738.0"/>
      <point x="624.0" y="968.0" type="curve" smooth="yes"/>
      <point x="624.0" y="1197.0"/>
      <point x="513.0" y="1350.0"/>
      <point x="349.0" y="1350.0" type="curve" smooth="yes"/>
      <point x="185.0" y="1350.0"/>
      <point x="74.0" y="1195.0"/>
      <point x="74.0" y="965.0" type="curve" smooth="yes"/>
      <point x="74.0" y="736.0"/>
      <point x="185.0" y="583.0"/>
    </contour>
  </outline>
</glyph>
<glyph name="peseta" format="2">
  <advance width="1100.0"/>
  <unicode hex="20A7"/>
  <outline>
    <contour>
      <point x="152.0" y="48.0" type="line"/>
      <point x="152.0" y="1340.0" type="line"/>
      <point x="-57.0" y="1340.0" type="line"/>
      <point x="-57.0" y="1318.0" type="line"/>
      <point x="77.0" y="1292.0" type="line"/>
      <point x="77.0" y="48.0" type="line"/>
      <point x="-57.0" y="22.0" type="line"/>
      <point x="-57.0" y="0.0" type="line"/>
      <point x="286.0" y="0.0" type="line"/>
      <point x="286.0" y="22.0" type="line"/>
    </contour>
    <contour>
      <point x="607.0" y="94.0" type="line" smooth="yes"/>
      <point x="607.0" y="18.0"/>
      <point x="647.0" y="-11.0"/>
      <point x="701.0" y="-11.0" type="curve" smooth="yes"/>
      <point x="728.0" y="-11.0"/>
      <point x="740.0" y="-8.0"/>
      <point x="814.0" y="30.0" type="curve"/>
      <point x="814.0" y="56.0" type="line"/>
      <point x="780.1149707120392" y="47.082887029484006"/>
      <point x="761.0" y="45.0"/>
      <point x="738.0" y="45.0" type="curve" smooth="yes"/>
      <point x="696.0" y="45.0"/>
      <point x="677.0" y="65.0"/>
      <point x="677.0" y="129.0" type="curve" smooth="yes"/>
      <point x="677.0" y="1020.0" type="line"/>
      <point x="655.0" y="1020.0" type="line"/>
      <point x="621.0" y="891.0"/>
      <point x="605.178099629761" y="885.3698687310691"/>
      <point x="540.0" y="864.0" type="curve"/>
      <point x="540.0" y="837.0" type="line"/>
      <point x="607.0" y="837.0" type="line"/>
    </contour>
    <contour>
      <point x="650.0" y="837.0" type="line"/>
      <point x="798.0" y="837.0" type="line"/>
      <point x="803.0" y="884.0" type="line"/>
      <point x="621.0" y="884.0" type="line"/>
    </contour>
    <contour>
      <point x="1021.0" y="905.0" type="curve" smooth="yes"/>
      <point x="947.0" y="905.0"/>
      <point x="869.0" y="851.0"/>
      <point x="869.0" y="691.0" type="curve" smooth="yes"/>
      <point x="869.0" y="410.0"/>
      <point x="1103.0" y="425.0"/>
      <point x="1103.0" y="170.0" type="curve" smooth="yes"/>
      <point x="1103.0" y="63.0"/>
      <point x="1052.0" y="23.0"/>
      <point x="987.0" y="23.0" type="curve" smooth="yes"/>
      <point x="966.0" y="23.0"/>
      <point x="947.0" y="26.0"/>
      <point x="928.0" y="36.0" type="curve"/>
      <point x="960.0" y="-1.0" type="line"/>
      <point x="883.0" y="244.0" type="line"/>
      <point x="856.0" y="244.0" type="line"/>
      <point x="887.0" y="2.0" type="line"/>
      <point x="920.0" y="-11.0"/>
      <point x="949.0" y="-15.0"/>
      <point x="995.0" y="-15.0" type="curve" smooth="yes"/>
      <point x="1085.0" y="-15.0"/>
      <point x="1156.0" y="55.0"/>
      <point x="1156.0" y="197.0" type="curve" smooth="yes"/>
      <point x="1156.0" y="490.0"/>
      <point x="922.0" y="499.0"/>
      <point x="922.0" y="716.0" type="curve" smooth="yes"/>
      <point x="922.0" y="817.0"/>
      <point x="971.0" y="868.0"/>
      <point x="1021.0" y="868.0" type="curve" smooth="yes"/>
      <point x="1039.0" y="868.0"/>
      <point x="1055.0" y="864.0"/>
      <point x="1069.0" y="858.0" type="curve"/>
      <point x="1057.0" y="874.0" type="line"/>
      <point x="1114.0" y="663.0" type="line"/>
      <point x="1141.0" y="663.0" type="line"/>
      <point x="1123.0" y="878.0" type="line"/>
      <point x="1096.0" y="894.0"/>
      <point x="1062.0" y="905.0"/>
    </contour>
    <contour>
      <point x="203.0" y="1297.0" type="line" smooth="yes"/>
      <point x="393.0" y="1297.0"/>
      <point x="443.0" y="1179.0"/>
      <point x="443.0" y="985.0" type="curve" smooth="yes"/>
      <point x="443.0" y="791.0"/>
      <point x="393.0" y="672.0"/>
      <point x="203.0" y="672.0" type="curve" smooth="yes"/>
      <point x="132.0" y="672.0" type="line"/>
      <point x="132.0" y="629.0" type="line"/>
      <point x="248.0" y="629.0" type="line" smooth="yes"/>
      <point x="437.0" y="629.0"/>
      <point x="520.0" y="786.0"/>
      <point x="520.0" y="985.0" type="curve" smooth="yes"/>
      <point x="520.0" y="1185.0"/>
      <point x="437.0" y="1340.0"/>
      <point x="248.0" y="1340.0" type="curve" smooth="yes"/>
      <point x="132.0" y="1340.0" type="line"/>
      <point x="132.0" y="1297.0" type="line"/>
    </contour>
  </outline>
</glyph>
<glyph name="notequal" format="2">
  <advance width="1000.0"/>
  <unicode hex="2260"/>
  <outline>
    <contour>
      <point x="144.0" y="0.0" type="line"/>
      <point x="203.0" y="0.0" type="line"/>
      <point x="858.0" y="852.0" type="line"/>
      <point x="799.0" y="852.0" type="line"/>
    </contour>
    <contour>
      <point x="144.0" y="630.0" type="line"/>
      <point x="144.0" y="586.0" type="line"/>
      <point x="858.0" y="586.0" type="line"/>
      <point x="858.0" y="630.0" type="line"/>
    </contour>
    <contour>
      <point x="144.0" y="290.0" type="line"/>
      <point x="144.0" y="246.0" type="line"/>
      <point x="858.0" y="246.0" type="line"/>
      <point x="858.0" y="290.0" type="line"/>
    </contour>
  </outline>
</glyph>
<glyph name="fi" format="2">
  <advance width="997.0"/>
  <unicode hex="FB01"/>
  <outline>
    <contour>
      <point x="761.0" y="798.0" type="line"/>
      <point x="736.0" y="828.0" type="line"/>
      <point x="736.0" y="49.0" type="line"/>
      <point x="584.0" y="23.0" type="line"/>
      <point x="584.0" y="0.0" type="line"/>
      <point x="958.0" y="0.0" type="line"/>
      <point x="958.0" y="23.0" type="line"/>
      <point x="806.0" y="49.0" type="line"/>
      <point x="806.0" y="777.0" type="line"/>
      <point x="816.0" y="872.0" type="line"/>
      <point x="808.0" y="872.0" type="line"/>
      <point x="714.0" y="852.0" type="line"/>
      <point x="247.0" y="852.0" type="line"/>
      <point x="231.0" y="859.0" type="line"/>
      <point x="27.0" y="826.0" type="line"/>
      <point x="27.0" y="806.0" type="line"/>
      <point x="218.0" y="790.0" type="line"/>
      <point x="262.0" y="798.0" type="line"/>
    </contour>
    <contour>
      <point x="286.0" y="49.0" type="line"/>
      <point x="286.0" y="966.0" type="line" smooth="yes"/>
      <point x="286.0" y="1245.0"/>
      <point x="406.0" y="1361.0"/>
      <point x="567.0" y="1361.0" type="curve" smooth="yes"/>
      <point x="674.0" y="1361.0"/>
      <point x="699.0" y="1265.0"/>
      <point x="769.0" y="1265.0" type="curve" smooth="yes"/>
      <point x="816.0" y="1265.0"/>
      <point x="843.0" y="1296.0"/>
      <point x="843.0" y="1336.0" type="curve" smooth="yes"/>
      <point x="843.0" y="1375.0"/>
      <point x="813.0" y="1419.0"/>
      <point x="675.0" y="1419.0" type="curve" smooth="yes"/>
      <point x="460.0" y="1419.0"/>
      <point x="216.0" y="1303.0"/>
      <point x="216.0" y="925.0" type="curve" smooth="yes"/>
      <point x="216.0" y="49.0" type="line"/>
      <point x="64.0" y="23.0" type="line"/>
      <point x="64.0" y="0.0" type="line"/>
      <point x="458.0" y="0.0" type="line"/>
      <point x="458.0" y="23.0" type="line"/>
    </contour>
  </outline>
</glyph>
<glyph name="f_f_l" format="2">
  <advance width="1517.0"/>
  <unicode hex="FB04"/>
  <guideline x="1332.0" y="1307" angle="180.0" identifier="90uUuadMOt"/>
  <outline>
    <contour>
      <point x="806.0" y="49.0" type="line"/>
      <point x="806.0" y="966.0" type="line" smooth="yes"/>
      <point x="806.0" y="1239.0"/>
      <point x="926.0" y="1353.0"/>
      <point x="1087.0" y="1353.0" type="curve" smooth="yes"/>
      <point x="1167.0" y="1353.0"/>
      <point x="1218.0" y="1327.0"/>
      <point x="1256.0" y="1285.0" type="curve"/>
      <point x="1256.0" y="49.0" type="line"/>
      <point x="1104.0" y="23.0" type="line"/>
      <point x="1104.0" y="0.0" type="line"/>
      <point x="1478.0" y="0.0" type="line"/>
      <point x="1478.0" y="23.0" type="line"/>
      <point x="1326.0" y="49.0" type="line"/>
      <point x="1326.0" y="1307.0" type="line"/>
      <point x="1326.0" y="1419.0" type="line"/>
      <point x="1318.0" y="1419.0" type="line"/>
      <point x="1255.0" y="1369.0" type="line"/>
      <point x="1312.0" y="1374.0" type="line"/>
      <point x="1270.0" y="1395.0"/>
      <point x="1228.0" y="1411.0"/>
      <point x="1154.0" y="1411.0" type="curve" smooth="yes"/>
      <point x="980.0" y="1411.0"/>
      <point x="736.0" y="1297.0"/>
      <point x="736.0" y="925.0" type="curve" smooth="yes"/>
      <point x="736.0" y="49.0" type="line"/>
      <point x="584.0" y="23.0" type="line"/>
      <point x="584.0" y="0.0" type="line"/>
      <point x="978.0" y="0.0" type="line"/>
      <point x="978.0" y="23.0" type="line"/>
    </contour>
    <contour>
      <point x="458.0" y="0.0" type="line"/>
      <point x="458.0" y="23.0" type="line"/>
      <point x="286.0" y="49.0" type="line"/>
      <point x="286.0" y="946.0" type="line" smooth="yes"/>
      <point x="286.0" y="1239.0"/>
      <point x="431.0" y="1357.0"/>
      <point x="610.0" y="1357.0" type="curve" smooth="yes"/>
      <point x="711.0" y="1357.0"/>
      <point x="785.0" y="1321.0"/>
      <point x="849.0" y="1245.0" type="curve"/>
      <point x="904.0" y="1306.0" type="line"/>
      <point x="853.0" y="1357.0"/>
      <point x="771.0" y="1399.0"/>
      <point x="648.0" y="1399.0" type="curve" smooth="yes"/>
      <point x="450.0" y="1399.0"/>
      <point x="216.0" y="1266.0"/>
      <point x="216.0" y="905.0" type="curve" smooth="yes"/>
      <point x="216.0" y="49.0" type="line"/>
      <point x="64.0" y="23.0" type="line"/>
      <point x="64.0" y="0.0" type="line"/>
    </contour>
    <contour>
      <point x="1084.0" y="852.0" type="line"/>
      <point x="247.0" y="852.0" type="line"/>
      <point x="231.0" y="859.0" type="line"/>
      <point x="27.0" y="826.0" type="line"/>
      <point x="27.0" y="806.0" type="line"/>
      <point x="218.0" y="790.0" type="line"/>
      <point x="262.0" y="798.0" type="line"/>
      <point x="1071.0" y="798.0" type="line"/>
    </contour>
  </outline>
</glyph>
<glyph name="acutecomb.case" format="2">
  <anchor x="0" y="1340.0" name="_UCtop"/>
  <anchor x="0" y="1716" name="UCtop"/>
  <outline>
    <contour>
      <point x="-28.0" y="1476.0" type="line"/>
      <point x="7.0" y="1476.0" type="line"/>
      <point x="265.0" y="1702.0" type="line"/>
      <point x="265.0" y="1716.0" type="line"/>
      <point x="162.0" y="1716.0" type="line"/>
    </contour>
  </outline>
</glyph>
<glyph name="caroncomb.alt" format="2">
  <anchor x="0" y="1399.0" name="_right"/>
  <outline>
    <contour>
      <point x="142.0" y="1038.0" type="line"/>
      <point x="171.0" y="1038.0" type="line"/>
      <point x="314.0" y="1381.0" type="line"/>
      <point x="314.0" y="1399.0" type="line"/>
      <point x="219.0" y="1399.0" type="line"/>
    </contour>
  </outline>
</glyph>
<glyph name="dong.lf" format="2">
  <advance width="1128.0"/>
  <outline>
    <contour>
      <point x="1028.0" y="-263.0" type="line"/>
      <point x="132.0" y="-263.0" type="line"/>
      <point x="132.0" y="-313.0" type="line"/>
      <point x="1028.0" y="-313.0" type="line"/>
    </contour>
    <contour>
      <point x="778.0" y="689.0" type="curve" smooth="yes"/>
      <point x="778.0" y="121.0" type="line"/>
      <point x="778.0" y="-20.0" type="line"/>
      <point x="787.0" y="-20.0" type="line"/>
      <point x="1030.0" y="46.0" type="line"/>
      <point x="1030.0" y="64.0" type="line"/>
      <point x="990.0" y="69.05494505494505"/>
      <point x="871.0" y="84.0934065934066"/>
      <point x="848.0" y="87.0" type="curve"/>
      <point x="848.0" y="1320.0" type="line"/>
      <point x="858.0" y="1419.0" type="line"/>
      <point x="850.0" y="1419.0" type="line"/>
      <point x="610.0" y="1374.0" type="line"/>
      <point x="610.0" y="1360.0" type="line"/>
      <point x="665.0" y="1343.6309523809523"/>
      <point x="755.0" y="1316.845238095238"/>
      <point x="778.0" y="1310.0" type="curve"/>
      <point x="778.0" y="738.0" type="line"/>
      <point x="835.0" y="810.0" type="line"/>
      <point x="730.0" y="859.0"/>
      <point x="660.0" y="872.0"/>
      <point x="561.0" y="872.0" type="curve" smooth="yes"/>
      <point x="300.0" y="872.0"/>
      <point x="92.0" y="701.0"/>
      <point x="92.0" y="396.0" type="curve" smooth="yes"/>
      <point x="92.0" y="130.0"/>
      <point x="227.0" y="-20.0"/>
      <point x="480.0" y="-20.0" type="curve" smooth="yes"/>
      <point x="562.0" y="-20.0"/>
      <point x="607.0" y="1.0"/>
      <point x="833.0" y="135.0" type="curve"/>
      <point x="833.0" y="174.0" type="line"/>
      <point x="709.0" y="79.0"/>
      <point x="600.0" y="43.0"/>
      <point x="498.0" y="43.0" type="curve" smooth="yes"/>
      <point x="295.0" y="43.0"/>
      <point x="165.0" y="179.0"/>
      <point x="165.0" y="408.0" type="curve" smooth="yes"/>
      <point x="165.0" y="667.0"/>
      <point x="292.0" y="828.0"/>
      <point x="538.0" y="828.0" type="curve" smooth="yes"/>
      <point x="669.0" y="828.0"/>
      <point x="778.0" y="761.0"/>
    </contour>
    <contour>
      <point x="488.0" y="1052.0" type="line"/>
      <point x="1030.0" y="1052.0" type="line"/>
      <point x="1030.0" y="1105.0" type="line"/>
      <point x="488.0" y="1105.0" type="line"/>
    </contour>
  </outline>
</glyph>
<glyph name="eight.lf" format="2">
  <advance width="1065.0"/>
  <guideline x="-463.0" y="1320" angle="0" identifier="KFkvtlnHen"/>
  <guideline x="-473.0" y="20" angle="0" identifier="0lJE4SoT2q"/>
  <outline>
    <contour>
      <point x="926.0" y="1230.0"/>
      <point x="783.0" y="1360.0"/>
      <point x="553.0" y="1360.0" type="curve" smooth="yes"/>
      <point x="306.0" y="1360.0"/>
      <point x="160.0" y="1215.0"/>
      <point x="160.0" y="1036.0" type="curve" smooth="yes"/>
      <point x="160.0" y="604.0"/>
      <point x="892.0" y="738.0"/>
      <point x="892.0" y="321.0" type="curve" smooth="yes"/>
      <point x="892.0" y="157.0"/>
      <point x="762.0" y="18.0"/>
      <point x="532.0" y="18.0" type="curve" smooth="yes"/>
      <point x="315.0" y="18.0"/>
      <point x="178.0" y="133.0"/>
      <point x="178.0" y="324.0" type="curve" smooth="yes"/>
      <point x="178.0" y="481.0"/>
      <point x="260.0" y="611.0"/>
      <point x="511.0" y="689.0" type="curve"/>
      <point x="491.0" y="710.0" type="line"/>
      <point x="180.0" y="617.0"/>
      <point x="98.0" y="471.0"/>
      <point x="98.0" y="309.0" type="curve" smooth="yes"/>
      <point x="98.0" y="100.0"/>
      <point x="254.0" y="-20.0"/>
      <point x="531.0" y="-20.0" type="curve" smooth="yes"/>
      <point x="783.0" y="-20.0"/>
      <point x="958.0" y="127.0"/>
      <point x="958.0" y="348.0" type="curve" smooth="yes"/>
      <point x="958.0" y="819.0"/>
      <point x="226.0" y="656.0"/>
      <point x="226.0" y="1063.0" type="curve" smooth="yes"/>
      <point x="226.0" y="1219.0"/>
      <point x="353.0" y="1322.0"/>
      <point x="553.0" y="1322.0" type="curve" smooth="yes"/>
      <point x="734.0" y="1322.0"/>
      <point x="851.0" y="1223.0"/>
      <point x="851.0" y="1058.0" type="curve" smooth="yes"/>
      <point x="851.0" y="901.0"/>
      <point x="757.0" y="789.0"/>
      <point x="543.0" y="727.0" type="curve"/>
      <point x="573.0" y="707.0" type="line"/>
      <point x="814.0898669772278" y="776.8958017707089"/>
      <point x="926.0" y="907.0"/>
      <point x="926.0" y="1063.0" type="curve" smooth="yes"/>
    </contour>
  </outline>
</glyph>
<glyph name="five.lf" format="2">
  <advance width="913.0"/>
  <outline>
    <contour>
      <point x="236.0" y="-20.0" type="curve" smooth="yes"/>
      <point x="584.0" y="-20.0"/>
      <point x="791.0" y="210.0"/>
      <point x="791.0" y="468.0" type="curve" smooth="yes"/>
      <point x="791.0" y="678.0"/>
      <point x="650.0" y="863.0"/>
      <point x="171.0" y="894.0" type="curve"/>
      <point x="174.0" y="841.0" type="line"/>
      <point x="315.0" y="1288.0" type="line"/>
      <point x="295.0" y="1270.0" type="line"/>
      <point x="827.0" y="1270.0" type="line"/>
      <point x="859.0" y="1366.0" type="line"/>
      <point x="704.0" y="1340.0" type="line"/>
      <point x="279.0" y="1340.0" type="line"/>
      <point x="138.0" y="816.0" type="line"/>
      <point x="585.0" y="800.0"/>
      <point x="719.0" y="647.0"/>
      <point x="719.0" y="448.0" type="curve" smooth="yes"/>
      <point x="719.0" y="192.0"/>
      <point x="541.0" y="43.0"/>
      <point x="352.0" y="43.0" type="curve" smooth="yes"/>
      <point x="218.0" y="43.0"/>
      <point x="187.0" y="124.0"/>
      <point x="116.0" y="124.0" type="curve" smooth="yes"/>
      <point x="75.0" y="124.0"/>
      <point x="54.0" y="101.0"/>
      <point x="54.0" y="66.0" type="curve" smooth="yes"/>
      <point x="54.0" y="21.0"/>
      <point x="98.0" y="-20.0"/>
    </contour>
  </outline>
</glyph>
<glyph name="four.lf" format="2">
  <advance width="1005.0"/>
  <guideline x="135.0" y="497" angle="176.79899822370126" identifier="q4c3JDDa68"/>
  <outline>
    <contour>
      <point x="674.0" y="1360.0" type="line"/>
      <point x="658.0" y="1360.0" type="line"/>
      <point x="15.0" y="468.0" type="line"/>
      <point x="15.0" y="447.0" type="line"/>
      <point x="928.0" y="447.0" type="line"/>
      <point x="979.0" y="539.0" type="line"/>
      <point x="840.0" y="511.0" type="line"/>
      <point x="74.0" y="511.0" type="line"/>
      <point x="68.0" y="467.0" type="line"/>
      <point x="622.0" y="1238.0" type="line"/>
      <point x="600.0" y="1249.0" type="line"/>
      <point x="600.0" y="51.0" type="line"/>
      <point x="406.0" y="22.0" type="line"/>
      <point x="406.0" y="0.0" type="line"/>
      <point x="855.0" y="0.0" type="line"/>
      <point x="855.0" y="22.0" type="line"/>
      <point x="674.0" y="51.0" type="line"/>
    </contour>
  </outline>
</glyph>
<glyph name="hookabovecomb.case" format="2">
  <anchor x="0" y="1340.0" name="_UCtop"/>
  <anchor x="0" y="1716" name="UCtop"/>
  <outline>
    <contour>
      <point x="-132.0" y="1674.0" type="line"/>
      <point x="60.0" y="1674.0"/>
      <point x="112.0" y="1650.0"/>
      <point x="112.0" y="1602.0" type="curve" smooth="yes"/>
      <point x="112.0" y="1557.0"/>
      <point x="68.0" y="1531.0"/>
      <point x="-40.0" y="1501.0" type="curve"/>
      <point x="-24.0" y="1470.0" type="line"/>
      <point x="126.0" y="1513.0"/>
      <point x="162.0" y="1552.0"/>
      <point x="162.0" y="1611.0" type="curve" smooth="yes"/>
      <point x="162.0" y="1684.0"/>
      <point x="107.0" y="1731.0"/>
      <point x="-122.0" y="1735.0" type="curve"/>
    </contour>
  </outline>
</glyph>
<glyph name="lira.lf" format="2">
  <advance width="1101"/>
  <outline>
    <contour>
      <point x="778.0" y="556.0" type="line"/>
      <point x="83.0" y="556.0" type="line"/>
      <point x="83.0" y="506.0" type="line"/>
      <point x="778.0" y="506.0" type="line"/>
    </contour>
    <contour>
      <point x="778.0" y="843.0" type="line"/>
      <point x="83.0" y="843.0" type="line"/>
      <point x="83.0" y="793.0" type="line"/>
      <point x="778.0" y="793.0" type="line"/>
    </contour>
    <contour>
      <point x="941.0" y="944.0" type="curve"/>
      <point x="974.0" y="950.0" type="line"/>
      <point x="929.0" y="1224.0"/>
      <point x="805.0" y="1360.0"/>
      <point x="568.0" y="1360.0" type="curve" smooth="yes"/>
      <point x="324.0" y="1360.0"/>
      <point x="190.0" y="1187.0"/>
      <point x="190.0" y="993.0" type="curve" smooth="yes"/>
      <point x="190.0" y="722.0"/>
      <point x="437.0" y="652.0"/>
      <point x="437.0" y="480.0" type="curve" smooth="yes"/>
      <point x="437.0" y="367.0"/>
      <point x="401.0" y="290.0"/>
      <point x="182.0" y="15.0" type="curve"/>
      <point x="182.0" y="0.0" type="line"/>
      <point x="857.0" y="0.0" type="line"/>
      <point x="939.0" y="-19.0" type="line"/>
      <point x="955.0" y="-19.0" type="line"/>
      <point x="1024.0" y="313.0" type="line"/>
      <point x="1002.0" y="313.0" type="line"/>
      <point x="847.0" y="46.0" type="line"/>
      <point x="889.0" y="76.0" type="line"/>
      <point x="246.0" y="76.0" type="line"/>
      <point x="244.0" y="38.0" type="line"/>
      <point x="424.0" y="259.0"/>
      <point x="499.0" y="386.0"/>
      <point x="499.0" y="503.0" type="curve" smooth="yes"/>
      <point x="499.0" y="683.0"/>
      <point x="263.0" y="778.0"/>
      <point x="263.0" y="1011.0" type="curve" smooth="yes"/>
      <point x="263.0" y="1181.0"/>
      <point x="368.0" y="1301.0"/>
      <point x="574.0" y="1301.0" type="curve" smooth="yes"/>
      <point x="781.0" y="1301.0"/>
      <point x="890.0" y="1173.0"/>
    </contour>
  </outline>
</glyph>
<glyph name="numbersign.lf" format="2">
  <advance width="1198.0"/>
  <outline>
    <contour>
      <point x="634.0" y="0.0" type="line"/>
      <point x="932.0" y="1340.0" type="line"/>
      <point x="880.0" y="1340.0" type="line"/>
      <point x="582.0" y="0.0" type="line"/>
    </contour>
    <contour>
      <point x="324.0" y="0.0" type="line"/>
      <point x="622.0" y="1340.0" type="line"/>
      <point x="571.0" y="1340.0" type="line"/>
      <point x="273.0" y="0.0" type="line"/>
    </contour>
    <contour>
      <point x="1051.0" y="544.0" type="line"/>
      <point x="69.0" y="544.0" type="line"/>
      <point x="69.0" y="494.0" type="line"/>
      <point x="1051.0" y="494.0" type="line"/>
    </contour>
    <contour>
      <point x="1129.0" y="852.0" type="line"/>
      <point x="148.0" y="852.0" type="line"/>
      <point x="148.0" y="802.0" type="line"/>
      <point x="1129.0" y="802.0" type="line"/>
    </contour>
  </outline>
</glyph>
<glyph name="six.lf" format="2">
  <advance width="1014.0"/>
  <guideline x="-525.0" y="20" angle="0" identifier="wmjB7c2KkU"/>
  <outline>
    <contour>
      <point x="829.0" y="1387.0" type="line"/>
      <point x="275.0" y="1197.0"/>
      <point x="99.0" y="897.0"/>
      <point x="99.0" y="523.0" type="curve" smooth="yes"/>
      <point x="99.0" y="225.0"/>
      <point x="251.0" y="-20.0"/>
      <point x="532.0" y="-20.0" type="curve" smooth="yes"/>
      <point x="773.0" y="-20.0"/>
      <point x="942.0" y="167.0"/>
      <point x="942.0" y="413.0" type="curve" smooth="yes"/>
      <point x="942.0" y="621.0"/>
      <point x="825.0" y="772.0"/>
      <point x="578.0" y="772.0" type="curve" smooth="yes"/>
      <point x="465.0" y="772.0"/>
      <point x="417.0" y="757.0"/>
      <point x="159.0" y="582.0" type="curve"/>
      <point x="176.0" y="558.0" type="line"/>
      <point x="324.0" y="667.0"/>
      <point x="464.0" y="706.0"/>
      <point x="548.0" y="706.0" type="curve" smooth="yes"/>
      <point x="756.0" y="706.0"/>
      <point x="869.0" y="581.0"/>
      <point x="869.0" y="366.0" type="curve" smooth="yes"/>
      <point x="869.0" y="153.0"/>
      <point x="722.0" y="18.0"/>
      <point x="530.0" y="18.0" type="curve" smooth="yes"/>
      <point x="325.0" y="18.0"/>
      <point x="181.0" y="204.0"/>
      <point x="181.0" y="531.0" type="curve" smooth="yes"/>
      <point x="181.0" y="966.0"/>
      <point x="390.0" y="1194.0"/>
      <point x="847.0" y="1360.0" type="curve"/>
    </contour>
  </outline>
</glyph>
<glyph name="three.lf" format="2">
  <advance width="951"/>
  <outline>
    <contour>
      <point x="289.0" y="656.0" type="line"/>
      <point x="373.0" y="685.0" type="line" smooth="yes"/>
      <point x="629.0" y="773.0"/>
      <point x="779.0" y="633.0"/>
      <point x="779.0" y="443.0" type="curve" smooth="yes"/>
      <point x="779.0" y="214.0"/>
      <point x="622.0" y="43.0"/>
      <point x="387.0" y="43.0" type="curve" smooth="yes"/>
      <point x="247.0" y="43.0"/>
      <point x="214.0" y="124.0"/>
      <point x="143.0" y="124.0" type="curve" smooth="yes"/>
      <point x="101.0" y="124.0"/>
      <point x="80.0" y="101.0"/>
      <point x="80.0" y="67.0" type="curve" smooth="yes"/>
      <point x="80.0" y="21.0"/>
      <point x="124.0" y="-20.0"/>
      <point x="263.0" y="-20.0" type="curve" smooth="yes"/>
      <point x="623.0" y="-20.0"/>
      <point x="858.0" y="184.0"/>
      <point x="858.0" y="471.0" type="curve" smooth="yes"/>
      <point x="858.0" y="657.0"/>
      <point x="731.0" y="791.0"/>
      <point x="485.0" y="752.0" type="curve"/>
      <point x="488.0" y="747.0" type="line"/>
      <point x="661.0" y="834.0"/>
      <point x="757.0" y="946.0"/>
      <point x="757.0" y="1091.0" type="curve" smooth="yes"/>
      <point x="757.0" y="1253.0"/>
      <point x="653.0" y="1360.0"/>
      <point x="462.0" y="1360.0" type="curve" smooth="yes"/>
      <point x="266.0" y="1360.0"/>
      <point x="139.0" y="1245.0"/>
      <point x="94.0" y="1026.0" type="curve"/>
      <point x="124.0" y="1020.0" type="line"/>
      <point x="174.0" y="1227.0"/>
      <point x="288.0" y="1301.0"/>
      <point x="442.0" y="1301.0" type="curve" smooth="yes"/>
      <point x="598.0" y="1301.0"/>
      <point x="676.0" y="1198.0"/>
      <point x="676.0" y="1067.0" type="curve" smooth="yes"/>
      <point x="676.0" y="913.0"/>
      <point x="587.0" y="808.0"/>
      <point x="278.0" y="688.0" type="curve"/>
    </contour>
  </outline>
</glyph>
<glyph name="two.lf" format="2">
  <advance width="996.0"/>
  <outline>
    <contour>
      <point x="745.0" y="46.0" type="line"/>
      <point x="787.0" y="70.0" type="line"/>
      <point x="144.0" y="70.0" type="line"/>
      <point x="156.0" y="53.0" type="line"/>
      <point x="506.0" y="460.0" type="line" smooth="yes"/>
      <point x="786.0" y="785.0"/>
      <point x="839.0" y="875.0"/>
      <point x="839.0" y="1035.0" type="curve" smooth="yes"/>
      <point x="839.0" y="1221.0"/>
      <point x="704.0" y="1360.0"/>
      <point x="490.0" y="1360.0" type="curve" smooth="yes"/>
      <point x="279.0" y="1360.0"/>
      <point x="136.0" y="1235.0"/>
      <point x="69.0" y="973.0" type="curve"/>
      <point x="99.0" y="968.0" type="line"/>
      <point x="169.0" y="1213.0"/>
      <point x="308.0" y="1287.0"/>
      <point x="461.0" y="1287.0" type="curve" smooth="yes"/>
      <point x="648.0" y="1287.0"/>
      <point x="754.0" y="1177.0"/>
      <point x="754.0" y="1012.0" type="curve" smooth="yes"/>
      <point x="754.0" y="889.0"/>
      <point x="696.0" y="764.0"/>
      <point x="462.0" y="479.0" type="curve" smooth="yes"/>
      <point x="80.0" y="15.0" type="line"/>
      <point x="80.0" y="0.0" type="line"/>
      <point x="755.0" y="0.0" type="line"/>
      <point x="837.0" y="-19.0" type="line"/>
      <point x="853.0" y="-19.0" type="line"/>
      <point x="922.0" y="313.0" type="line"/>
      <point x="900.0" y="313.0" type="line"/>
    </contour>
  </outline>
</glyph>
<glyph name="uni0302_gravecomb.case" format="2">
  <anchor x="0.0" y="1340.0" name="_UCtop"/>
  <anchor x="-135" y="1817" name="UCtop"/>
  <outline>
    <contour>
      <point x="-200.0" y="1621.0" type="line"/>
      <point x="-355.0" y="1818.0" type="line"/>
      <point x="-450.0" y="1818.0" type="line"/>
      <point x="-450.0" y="1803.0" type="line"/>
      <point x="-237.0" y="1621.0" type="line"/>
    </contour>
    <contour>
      <point x="18.0" y="1666.0" type="line"/>
      <point x="-19.0" y="1666.0" type="line"/>
      <point x="204.0" y="1476.0" type="line"/>
      <point x="249.0" y="1476.0" type="line"/>
      <point x="30.0" y="1716.0" type="line"/>
      <point x="-29.0" y="1716.0" type="line"/>
      <point x="-249.0" y="1476.0" type="line"/>
      <point x="-204.0" y="1476.0" type="line"/>
    </contour>
  </outline>
</glyph>
<glyph name="uni0306.case" format="2">
  <anchor x="0" y="1340.0" name="_UCtop"/>
  <anchor x="0" y="1716" name="UCtop"/>
  <outline>
    <contour>
      <point x="0.0" y="1529.0" type="curve" smooth="yes"/>
      <point x="-117.0" y="1529.0"/>
      <point x="-170.0" y="1584.0"/>
      <point x="-206.0" y="1716.0" type="curve"/>
      <point x="-241.0" y="1716.0" type="line"/>
      <point x="-187.0" y="1516.0"/>
      <point x="-134.0" y="1469.0"/>
      <point x="0.0" y="1469.0" type="curve" smooth="yes"/>
      <point x="134.0" y="1469.0"/>
      <point x="187.0" y="1516.0"/>
      <point x="241.0" y="1716.0" type="curve"/>
      <point x="206.0" y="1716.0" type="line"/>
      <point x="170.0" y="1584.0"/>
      <point x="117.0" y="1529.0"/>
    </contour>
  </outline>
</glyph>
<glyph name="uni0306_gravecomb.case" format="2">
  <anchor x="0" y="1340.0" name="_UCtop"/>
  <outline>
    <contour>
      <point x="15.0" y="1611.0" type="line"/>
      <point x="-122.0" y="1846.0" type="line"/>
      <point x="-216.0" y="1846.0" type="line"/>
      <point x="-216.0" y="1838.0" type="line"/>
      <point x="-19.0" y="1611.0" type="line"/>
    </contour>
    <contour>
      <point x="0.0" y="1494.0" type="curve" smooth="yes"/>
      <point x="-108.0" y="1494.0"/>
      <point x="-153.0" y="1541.0"/>
      <point x="-188.0" y="1635.0" type="curve"/>
      <point x="-220.0" y="1635.0" type="line"/>
      <point x="-170.0" y="1485.0"/>
      <point x="-116.0" y="1428.0"/>
      <point x="0.0" y="1428.0" type="curve" smooth="yes"/>
      <point x="116.0" y="1428.0"/>
      <point x="170.0" y="1485.0"/>
      <point x="220.0" y="1635.0" type="curve"/>
      <point x="188.0" y="1635.0" type="line"/>
      <point x="153.0" y="1541.0"/>
      <point x="108.0" y="1494.0"/>
    </contour>
  </outline>
</glyph>
<glyph name="uni0306_gravecomb" format="2">
  <anchor x="0.0" y="852.0" name="_top"/>
  <outline>
    <contour>
      <point x="23.0" y="1189.0" type="line"/>
      <point x="-148.0" y="1476.0" type="line"/>
      <point x="-241.0" y="1476.0" type="line"/>
      <point x="-241.0" y="1456.0" type="line"/>
      <point x="-13.0" y="1189.0" type="line"/>
    </contour>
    <contour>
      <point x="0.0" y="1030.0" type="curve" smooth="yes"/>
      <point x="-105.0" y="1030.0"/>
      <point x="-161.0" y="1073.0"/>
      <point x="-194.0" y="1206.0" type="curve"/>
      <point x="-226.0" y="1206.0" type="line"/>
      <point x="-175.0" y="1000.0"/>
      <point x="-117.0" y="957.0"/>
      <point x="0.0" y="957.0" type="curve" smooth="yes"/>
      <point x="117.0" y="957.0"/>
      <point x="175.0" y="1000.0"/>
      <point x="226.0" y="1206.0" type="curve"/>
      <point x="194.0" y="1206.0" type="line"/>
      <point x="161.0" y="1073.0"/>
      <point x="105.0" y="1030.0"/>
    </contour>
  </outline>
</glyph>
<glyph name="uni0307.case" format="2">
  <anchor x="0" y="1340.0" name="_UCtop"/>
  <anchor x="0" y="1677" name="UCtop"/>
  <anchor x="0" y="1596" name="_mid"/>
  <outline>
    <contour>
      <point x="0.0" y="1516.0" type="curve" smooth="yes"/>
      <point x="49.0" y="1516.0"/>
      <point x="79.0" y="1555.0"/>
      <point x="79.0" y="1596.0" type="curve" smooth="yes"/>
      <point x="79.0" y="1638.0"/>
      <point x="49.0" y="1677.0"/>
      <point x="0.0" y="1677.0" type="curve" smooth="yes"/>
      <point x="-49.0" y="1677.0"/>
      <point x="-79.0" y="1638.0"/>
      <point x="-79.0" y="1596.0" type="curve" smooth="yes"/>
      <point x="-79.0" y="1555.0"/>
      <point x="-49.0" y="1516.0"/>
    </contour>
  </outline>
</glyph>
<glyph name="uni0308.case" format="2">
  <anchor x="0" y="1340.0" name="_UCtop"/>
  <anchor x="0" y="1677" name="UCtop"/>
  <outline>
    <contour>
      <point x="-203.0" y="1520.0" type="curve" smooth="yes"/>
      <point x="-156.0" y="1520.0"/>
      <point x="-128.0" y="1557.0"/>
      <point x="-128.0" y="1596.0" type="curve" smooth="yes"/>
      <point x="-128.0" y="1636.0"/>
      <point x="-156.0" y="1673.0"/>
      <point x="-203.0" y="1673.0" type="curve" smooth="yes"/>
      <point x="-250.0" y="1673.0"/>
      <point x="-278.0" y="1636.0"/>
      <point x="-278.0" y="1596.0" type="curve" smooth="yes"/>
      <point x="-278.0" y="1557.0"/>
      <point x="-250.0" y="1520.0"/>
    </contour>
    <contour>
      <point x="203.0" y="1520.0" type="curve" smooth="yes"/>
      <point x="250.0" y="1520.0"/>
      <point x="278.0" y="1557.0"/>
      <point x="278.0" y="1596.0" type="curve" smooth="yes"/>
      <point x="278.0" y="1636.0"/>
      <point x="250.0" y="1673.0"/>
      <point x="203.0" y="1673.0" type="curve" smooth="yes"/>
      <point x="156.0" y="1673.0"/>
      <point x="128.0" y="1636.0"/>
      <point x="128.0" y="1596.0" type="curve" smooth="yes"/>
      <point x="128.0" y="1557.0"/>
      <point x="156.0" y="1520.0"/>
    </contour>
  </outline>
</glyph>
<glyph name="uni030A.case" format="2">
  <anchor x="0" y="1340.0" name="_UCtop"/>
  <anchor x="0" y="1716" name="UCtop"/>
  <outline>
    <contour>
      <point x="0.0" y="1771.0" type="curve" smooth="yes"/>
      <point x="-99.0" y="1771.0"/>
      <point x="-174.0" y="1696.0"/>
      <point x="-174.0" y="1596.0" type="curve" smooth="yes"/>
      <point x="-174.0" y="1496.0"/>
      <point x="-99.0" y="1421.0"/>
      <point x="0.0" y="1421.0" type="curve" smooth="yes"/>
      <point x="99.0" y="1421.0"/>
      <point x="174.0" y="1496.0"/>
      <point x="174.0" y="1596.0" type="curve" smooth="yes"/>
      <point x="174.0" y="1696.0"/>
      <point x="99.0" y="1771.0"/>
    </contour>
    <contour>
      <point x="0.0" y="1460.0" type="curve" smooth="yes"/>
      <point x="-76.0" y="1460.0"/>
      <point x="-130.0" y="1517.0"/>
      <point x="-130.0" y="1596.0" type="curve" smooth="yes"/>
      <point x="-130.0" y="1675.0"/>
      <point x="-76.0" y="1732.0"/>
      <point x="0.0" y="1732.0" type="curve" smooth="yes"/>
      <point x="76.0" y="1732.0"/>
      <point x="130.0" y="1675.0"/>
      <point x="130.0" y="1596.0" type="curve" smooth="yes"/>
      <point x="130.0" y="1517.0"/>
      <point x="76.0" y="1460.0"/>
    </contour>
  </outline>
</glyph>
<glyph name="uni20B1.lf.1" format="2">
  <advance width="1292.0"/>
  <outline>
    <contour>
      <point x="324.0" y="1289.0" type="line"/>
      <point x="324.0" y="51.0" type="line"/>
      <point x="143.0" y="22.0" type="line"/>
      <point x="143.0" y="0.0" type="line"/>
      <point x="579.0" y="0.0" type="line"/>
      <point x="579.0" y="22.0" type="line"/>
      <point x="398.0" y="51.0" type="line"/>
      <point x="398.0" y="1340.0" type="line"/>
      <point x="143.0" y="1340.0" type="line"/>
      <point x="143.0" y="1318.0" type="line"/>
    </contour>
    <contour>
      <point x="373.0" y="1340.0" type="line"/>
      <point x="367.0" y="1297.0" type="line"/>
      <point x="531.0" y="1297.0" type="line" smooth="yes"/>
      <point x="847.0" y="1297.0"/>
      <point x="944.0" y="1161.0"/>
      <point x="944.0" y="937.0" type="curve" smooth="yes"/>
      <point x="944.0" y="712.0"/>
      <point x="847.0" y="576.0"/>
      <point x="531.0" y="576.0" type="curve" smooth="yes"/>
      <point x="367.0" y="576.0" type="line"/>
      <point x="364.0" y="533.0" type="line"/>
      <point x="575.0" y="533.0" type="line" smooth="yes"/>
      <point x="901.0" y="533.0"/>
      <point x="1021.0" y="710.0"/>
      <point x="1021.0" y="937.0" type="curve" smooth="yes"/>
      <point x="1021.0" y="1163.0"/>
      <point x="900.0" y="1340.0"/>
      <point x="575.0" y="1340.0" type="curve" smooth="yes"/>
    </contour>
    <contour>
      <point x="362.0" y="1098.0" type="line"/>
      <point x="113.0" y="1098.0" type="line"/>
      <point x="113.0" y="1048.0" type="line"/>
      <point x="362.0" y="1048.0" type="line"/>
    </contour>
    <contour>
      <point x="362.0" y="811.0" type="line"/>
      <point x="113.0" y="811.0" type="line"/>
      <point x="113.0" y="761.0" type="line"/>
      <point x="362.0" y="761.0" type="line"/>
    </contour>
    <contour>
      <point x="970.0" y="1048.0" type="line"/>
      <point x="1196.0" y="1048.0" type="line"/>
      <point x="1196.0" y="1098.0" type="line"/>
      <point x="970.0" y="1098.0" type="line"/>
    </contour>
    <contour>
      <point x="960.0" y="761.0" type="line"/>
      <point x="1196.0" y="761.0" type="line"/>
      <point x="1196.0" y="811.0" type="line"/>
      <point x="960.0" y="811.0" type="line"/>
    </contour>
  </outline>
</glyph>
<glyph name="uni20BA.lf" format="2">
  <advance width="1118"/>
  <outline>
    <contour>
      <point x="983.0" y="-46.0" type="line"/>
      <point x="1060.0" y="338.0" type="line"/>
      <point x="1038.0" y="345.0" type="line"/>
      <point x="886.0" y="17.0" type="line"/>
      <point x="932.0" y="43.0" type="line"/>
      <point x="325.0" y="43.0" type="line"/>
      <point x="325.0" y="0.0" type="line"/>
      <point x="901.0" y="0.0" type="line"/>
      <point x="975.0" y="-46.0" type="line"/>
    </contour>
    <contour>
      <point x="117.0" y="319.0" type="line"/>
      <point x="347.0" y="454.0" type="line"/>
      <point x="384.0" y="468.0" type="line"/>
      <point x="747.0" y="680.0" type="line"/>
      <point x="747.0" y="732.0" type="line"/>
      <point x="384.0" y="521.0" type="line"/>
      <point x="347.0" y="506.0" type="line"/>
      <point x="117.0" y="372.0" type="line"/>
    </contour>
    <contour>
      <point x="117.0" y="617.0" type="line"/>
      <point x="347.0" y="752.0" type="line"/>
      <point x="384.0" y="766.0" type="line"/>
      <point x="747.0" y="978.0" type="line"/>
      <point x="747.0" y="1030.0" type="line"/>
      <point x="384.0" y="819.0" type="line"/>
      <point x="347.0" y="804.0" type="line"/>
      <point x="117.0" y="670.0" type="line"/>
    </contour>
    <contour>
      <point x="144.0" y="0.0" type="line"/>
      <point x="399.0" y="0.0" type="line"/>
      <point x="399.0" y="1289.0" type="line"/>
      <point x="580.0" y="1318.0" type="line"/>
      <point x="580.0" y="1340.0" type="line"/>
      <point x="144.0" y="1340.0" type="line"/>
      <point x="144.0" y="1318.0" type="line"/>
      <point x="325.0" y="1289.0" type="line"/>
      <point x="325.0" y="51.0" type="line"/>
      <point x="144.0" y="22.0" type="line"/>
    </contour>
  </outline>
</glyph>
<glyph name="uni20BC.lf" format="2">
  <advance width="1004.0"/>
  <outline>
    <contour>
      <point x="502.0" y="1095.0" type="curve" smooth="yes"/>
      <point x="692.0" y="1095.0"/>
      <point x="801.0" y="804.0"/>
      <point x="827.0" y="0.0" type="curve"/>
      <point x="911.0" y="0.0" type="line"/>
      <point x="845.0" y="899.0"/>
      <point x="705.0" y="1139.0"/>
      <point x="502.0" y="1139.0" type="curve" smooth="yes"/>
      <point x="300.0" y="1139.0"/>
      <point x="158.0" y="899.0"/>
      <point x="93.0" y="0.0" type="curve"/>
      <point x="176.0" y="0.0" type="line"/>
      <point x="202.0" y="804.0"/>
      <point x="313.0" y="1095.0"/>
    </contour>
    <contour>
      <point x="476.0" y="0.0" type="line"/>
      <point x="526.0" y="0.0" type="line"/>
      <point x="526.0" y="1340.0" type="line"/>
      <point x="476.0" y="1340.0" type="line"/>
    </contour>
  </outline>
</glyph>
